<?xml version="1.0" encoding="utf-8" standalone="no"?>
<!DOCTYPE svg PUBLIC "-//W3C//DTD SVG 1.1//EN"
  "http://www.w3.org/Graphics/SVG/1.1/DTD/svg11.dtd">
<svg height="288pt" version="1.1" viewBox="0 0 648 288" width="648pt" xmlns="http://www.w3.org/2000/svg" xmlns:xlink="http://www.w3.org/1999/xlink">
 <metadata>
  <rdf:RDF xmlns:cc="http://creativecommons.org/ns#" xmlns:dc="http://purl.org/dc/elements/1.1/" xmlns:rdf="http://www.w3.org/1999/02/22-rdf-syntax-ns#">
   <cc:Work>
    <dc:type rdf:resource="http://purl.org/dc/dcmitype/StillImage"/>
    <dc:date>2022-08-09T14:02:46.366762</dc:date>
    <dc:format>image/svg+xml</dc:format>
    <dc:creator>
     <cc:Agent>
      <dc:title>Matplotlib v3.4.2, https://matplotlib.org/</dc:title>
     </cc:Agent>
    </dc:creator>
   </cc:Work>
  </rdf:RDF>
 </metadata>
 <defs>
  <style type="text/css">*{stroke-linecap:butt;stroke-linejoin:round;}</style>
 </defs>
 <g id="figure_1">
  <g id="patch_1">
   <path d="M 0 288 
L 648 288 
L 648 0 
L 0 0 
z
" style="fill:#ffffff;"/>
  </g>
  <g id="axes_1">
   <g id="patch_2">
    <path d="M 34.7429 261.8381 
L 308.274875 261.8381 
L 308.274875 10.8 
L 34.7429 10.8 
z
" style="fill:#ffffff;"/>
   </g>
   <g id="matplotlib.axis_1">
    <g id="xtick_1">
     <g id="line2d_1">
      <defs>
       <path d="M 0 0 
L 0 3.5 
" id="m6ff574f380" style="stroke:#000000;stroke-width:0.8;"/>
      </defs>
      <g>
       <use style="stroke:#000000;stroke-width:0.8;" x="68.934397" xlink:href="#m6ff574f380" y="261.8381"/>
      </g>
     </g>
     <g id="text_1">
      <!-- 40% -->
      <g transform="translate(55.598459 277.956225)scale(0.12 -0.12)">
       <defs>
        <path d="M 2419 4116 
L 825 1625 
L 2419 1625 
L 2419 4116 
z
M 2253 4666 
L 3047 4666 
L 3047 1625 
L 3713 1625 
L 3713 1100 
L 3047 1100 
L 3047 0 
L 2419 0 
L 2419 1100 
L 313 1100 
L 313 1709 
L 2253 4666 
z
" id="DejaVuSans-34" transform="scale(0.015625)"/>
        <path d="M 2034 4250 
Q 1547 4250 1301 3770 
Q 1056 3291 1056 2328 
Q 1056 1369 1301 889 
Q 1547 409 2034 409 
Q 2525 409 2770 889 
Q 3016 1369 3016 2328 
Q 3016 3291 2770 3770 
Q 2525 4250 2034 4250 
z
M 2034 4750 
Q 2819 4750 3233 4129 
Q 3647 3509 3647 2328 
Q 3647 1150 3233 529 
Q 2819 -91 2034 -91 
Q 1250 -91 836 529 
Q 422 1150 422 2328 
Q 422 3509 836 4129 
Q 1250 4750 2034 4750 
z
" id="DejaVuSans-30" transform="scale(0.015625)"/>
        <path d="M 4653 2053 
Q 4381 2053 4226 1822 
Q 4072 1591 4072 1178 
Q 4072 772 4226 539 
Q 4381 306 4653 306 
Q 4919 306 5073 539 
Q 5228 772 5228 1178 
Q 5228 1588 5073 1820 
Q 4919 2053 4653 2053 
z
M 4653 2450 
Q 5147 2450 5437 2106 
Q 5728 1763 5728 1178 
Q 5728 594 5436 251 
Q 5144 -91 4653 -91 
Q 4153 -91 3862 251 
Q 3572 594 3572 1178 
Q 3572 1766 3864 2108 
Q 4156 2450 4653 2450 
z
M 1428 4353 
Q 1159 4353 1004 4120 
Q 850 3888 850 3481 
Q 850 3069 1003 2837 
Q 1156 2606 1428 2606 
Q 1700 2606 1854 2837 
Q 2009 3069 2009 3481 
Q 2009 3884 1853 4118 
Q 1697 4353 1428 4353 
z
M 4250 4750 
L 4750 4750 
L 1831 -91 
L 1331 -91 
L 4250 4750 
z
M 1428 4750 
Q 1922 4750 2215 4408 
Q 2509 4066 2509 3481 
Q 2509 2891 2217 2550 
Q 1925 2209 1428 2209 
Q 931 2209 642 2551 
Q 353 2894 353 3481 
Q 353 4063 643 4406 
Q 934 4750 1428 4750 
z
" id="DejaVuSans-25" transform="scale(0.015625)"/>
       </defs>
       <use xlink:href="#DejaVuSans-34"/>
       <use x="63.623047" xlink:href="#DejaVuSans-30"/>
       <use x="127.246094" xlink:href="#DejaVuSans-25"/>
      </g>
     </g>
    </g>
    <g id="xtick_2">
     <g id="line2d_2">
      <g>
       <use style="stroke:#000000;stroke-width:0.8;" x="137.317391" xlink:href="#m6ff574f380" y="261.8381"/>
      </g>
     </g>
     <g id="text_2">
      <!-- 60% -->
      <g transform="translate(123.981453 277.956225)scale(0.12 -0.12)">
       <defs>
        <path d="M 2113 2584 
Q 1688 2584 1439 2293 
Q 1191 2003 1191 1497 
Q 1191 994 1439 701 
Q 1688 409 2113 409 
Q 2538 409 2786 701 
Q 3034 994 3034 1497 
Q 3034 2003 2786 2293 
Q 2538 2584 2113 2584 
z
M 3366 4563 
L 3366 3988 
Q 3128 4100 2886 4159 
Q 2644 4219 2406 4219 
Q 1781 4219 1451 3797 
Q 1122 3375 1075 2522 
Q 1259 2794 1537 2939 
Q 1816 3084 2150 3084 
Q 2853 3084 3261 2657 
Q 3669 2231 3669 1497 
Q 3669 778 3244 343 
Q 2819 -91 2113 -91 
Q 1303 -91 875 529 
Q 447 1150 447 2328 
Q 447 3434 972 4092 
Q 1497 4750 2381 4750 
Q 2619 4750 2861 4703 
Q 3103 4656 3366 4563 
z
" id="DejaVuSans-36" transform="scale(0.015625)"/>
       </defs>
       <use xlink:href="#DejaVuSans-36"/>
       <use x="63.623047" xlink:href="#DejaVuSans-30"/>
       <use x="127.246094" xlink:href="#DejaVuSans-25"/>
      </g>
     </g>
    </g>
    <g id="xtick_3">
     <g id="line2d_3">
      <g>
       <use style="stroke:#000000;stroke-width:0.8;" x="205.700384" xlink:href="#m6ff574f380" y="261.8381"/>
      </g>
     </g>
     <g id="text_3">
      <!-- 80% -->
      <g transform="translate(192.364447 277.956225)scale(0.12 -0.12)">
       <defs>
        <path d="M 2034 2216 
Q 1584 2216 1326 1975 
Q 1069 1734 1069 1313 
Q 1069 891 1326 650 
Q 1584 409 2034 409 
Q 2484 409 2743 651 
Q 3003 894 3003 1313 
Q 3003 1734 2745 1975 
Q 2488 2216 2034 2216 
z
M 1403 2484 
Q 997 2584 770 2862 
Q 544 3141 544 3541 
Q 544 4100 942 4425 
Q 1341 4750 2034 4750 
Q 2731 4750 3128 4425 
Q 3525 4100 3525 3541 
Q 3525 3141 3298 2862 
Q 3072 2584 2669 2484 
Q 3125 2378 3379 2068 
Q 3634 1759 3634 1313 
Q 3634 634 3220 271 
Q 2806 -91 2034 -91 
Q 1263 -91 848 271 
Q 434 634 434 1313 
Q 434 1759 690 2068 
Q 947 2378 1403 2484 
z
M 1172 3481 
Q 1172 3119 1398 2916 
Q 1625 2713 2034 2713 
Q 2441 2713 2670 2916 
Q 2900 3119 2900 3481 
Q 2900 3844 2670 4047 
Q 2441 4250 2034 4250 
Q 1625 4250 1398 4047 
Q 1172 3844 1172 3481 
z
" id="DejaVuSans-38" transform="scale(0.015625)"/>
       </defs>
       <use xlink:href="#DejaVuSans-38"/>
       <use x="63.623047" xlink:href="#DejaVuSans-30"/>
       <use x="127.246094" xlink:href="#DejaVuSans-25"/>
      </g>
     </g>
    </g>
    <g id="xtick_4">
     <g id="line2d_4">
      <g>
       <use style="stroke:#000000;stroke-width:0.8;" x="274.083378" xlink:href="#m6ff574f380" y="261.8381"/>
      </g>
     </g>
     <g id="text_4">
      <!-- 95% -->
      <g transform="translate(260.747441 277.956225)scale(0.12 -0.12)">
       <defs>
        <path d="M 703 97 
L 703 672 
Q 941 559 1184 500 
Q 1428 441 1663 441 
Q 2288 441 2617 861 
Q 2947 1281 2994 2138 
Q 2813 1869 2534 1725 
Q 2256 1581 1919 1581 
Q 1219 1581 811 2004 
Q 403 2428 403 3163 
Q 403 3881 828 4315 
Q 1253 4750 1959 4750 
Q 2769 4750 3195 4129 
Q 3622 3509 3622 2328 
Q 3622 1225 3098 567 
Q 2575 -91 1691 -91 
Q 1453 -91 1209 -44 
Q 966 3 703 97 
z
M 1959 2075 
Q 2384 2075 2632 2365 
Q 2881 2656 2881 3163 
Q 2881 3666 2632 3958 
Q 2384 4250 1959 4250 
Q 1534 4250 1286 3958 
Q 1038 3666 1038 3163 
Q 1038 2656 1286 2365 
Q 1534 2075 1959 2075 
z
" id="DejaVuSans-39" transform="scale(0.015625)"/>
        <path d="M 691 4666 
L 3169 4666 
L 3169 4134 
L 1269 4134 
L 1269 2991 
Q 1406 3038 1543 3061 
Q 1681 3084 1819 3084 
Q 2600 3084 3056 2656 
Q 3513 2228 3513 1497 
Q 3513 744 3044 326 
Q 2575 -91 1722 -91 
Q 1428 -91 1123 -41 
Q 819 9 494 109 
L 494 744 
Q 775 591 1075 516 
Q 1375 441 1709 441 
Q 2250 441 2565 725 
Q 2881 1009 2881 1497 
Q 2881 1984 2565 2268 
Q 2250 2553 1709 2553 
Q 1456 2553 1204 2497 
Q 953 2441 691 2322 
L 691 4666 
z
" id="DejaVuSans-35" transform="scale(0.015625)"/>
       </defs>
       <use xlink:href="#DejaVuSans-39"/>
       <use x="63.623047" xlink:href="#DejaVuSans-35"/>
       <use x="127.246094" xlink:href="#DejaVuSans-25"/>
      </g>
     </g>
    </g>
   </g>
   <g id="matplotlib.axis_2">
    <g id="ytick_1">
     <g id="line2d_5">
      <path clip-path="url(#p90f1c982e1)" d="M 34.7429 257.892364 
L 308.274875 257.892364 
" style="fill:none;stroke:#b0b0b0;stroke-dasharray:2.96,1.28;stroke-dashoffset:0;stroke-width:0.8;"/>
     </g>
     <g id="line2d_6">
      <defs>
       <path d="M 0 0 
L -3.5 0 
" id="m17ef4c640b" style="stroke:#000000;stroke-width:0.8;"/>
      </defs>
      <g>
       <use style="stroke:#000000;stroke-width:0.8;" x="34.7429" xlink:href="#m17ef4c640b" y="257.892364"/>
      </g>
     </g>
     <g id="text_5">
      <!-- 1 -->
      <g transform="translate(21.3804 261.691583)scale(0.1 -0.1)">
       <defs>
        <path d="M 794 531 
L 1825 531 
L 1825 4091 
L 703 3866 
L 703 4441 
L 1819 4666 
L 2450 4666 
L 2450 531 
L 3481 531 
L 3481 0 
L 794 0 
L 794 531 
z
" id="DejaVuSans-31" transform="scale(0.015625)"/>
       </defs>
       <use xlink:href="#DejaVuSans-31"/>
      </g>
     </g>
    </g>
    <g id="ytick_2">
     <g id="line2d_7">
      <path clip-path="url(#p90f1c982e1)" d="M 34.7429 207.755524 
L 308.274875 207.755524 
" style="fill:none;stroke:#b0b0b0;stroke-dasharray:2.96,1.28;stroke-dashoffset:0;stroke-width:0.8;"/>
     </g>
     <g id="line2d_8">
      <g>
       <use style="stroke:#000000;stroke-width:0.8;" x="34.7429" xlink:href="#m17ef4c640b" y="207.755524"/>
      </g>
     </g>
     <g id="text_6">
      <!-- 2 -->
      <g transform="translate(21.3804 211.554742)scale(0.1 -0.1)">
       <defs>
        <path d="M 1228 531 
L 3431 531 
L 3431 0 
L 469 0 
L 469 531 
Q 828 903 1448 1529 
Q 2069 2156 2228 2338 
Q 2531 2678 2651 2914 
Q 2772 3150 2772 3378 
Q 2772 3750 2511 3984 
Q 2250 4219 1831 4219 
Q 1534 4219 1204 4116 
Q 875 4013 500 3803 
L 500 4441 
Q 881 4594 1212 4672 
Q 1544 4750 1819 4750 
Q 2544 4750 2975 4387 
Q 3406 4025 3406 3419 
Q 3406 3131 3298 2873 
Q 3191 2616 2906 2266 
Q 2828 2175 2409 1742 
Q 1991 1309 1228 531 
z
" id="DejaVuSans-32" transform="scale(0.015625)"/>
       </defs>
       <use xlink:href="#DejaVuSans-32"/>
      </g>
     </g>
    </g>
    <g id="ytick_3">
     <g id="line2d_9">
      <path clip-path="url(#p90f1c982e1)" d="M 34.7429 157.618683 
L 308.274875 157.618683 
" style="fill:none;stroke:#b0b0b0;stroke-dasharray:2.96,1.28;stroke-dashoffset:0;stroke-width:0.8;"/>
     </g>
     <g id="line2d_10">
      <g>
       <use style="stroke:#000000;stroke-width:0.8;" x="34.7429" xlink:href="#m17ef4c640b" y="157.618683"/>
      </g>
     </g>
     <g id="text_7">
      <!-- 3 -->
      <g transform="translate(21.3804 161.417901)scale(0.1 -0.1)">
       <defs>
        <path d="M 2597 2516 
Q 3050 2419 3304 2112 
Q 3559 1806 3559 1356 
Q 3559 666 3084 287 
Q 2609 -91 1734 -91 
Q 1441 -91 1130 -33 
Q 819 25 488 141 
L 488 750 
Q 750 597 1062 519 
Q 1375 441 1716 441 
Q 2309 441 2620 675 
Q 2931 909 2931 1356 
Q 2931 1769 2642 2001 
Q 2353 2234 1838 2234 
L 1294 2234 
L 1294 2753 
L 1863 2753 
Q 2328 2753 2575 2939 
Q 2822 3125 2822 3475 
Q 2822 3834 2567 4026 
Q 2313 4219 1838 4219 
Q 1578 4219 1281 4162 
Q 984 4106 628 3988 
L 628 4550 
Q 988 4650 1302 4700 
Q 1616 4750 1894 4750 
Q 2613 4750 3031 4423 
Q 3450 4097 3450 3541 
Q 3450 3153 3228 2886 
Q 3006 2619 2597 2516 
z
" id="DejaVuSans-33" transform="scale(0.015625)"/>
       </defs>
       <use xlink:href="#DejaVuSans-33"/>
      </g>
     </g>
    </g>
    <g id="ytick_4">
     <g id="line2d_11">
      <path clip-path="url(#p90f1c982e1)" d="M 34.7429 107.481842 
L 308.274875 107.481842 
" style="fill:none;stroke:#b0b0b0;stroke-dasharray:2.96,1.28;stroke-dashoffset:0;stroke-width:0.8;"/>
     </g>
     <g id="line2d_12">
      <g>
       <use style="stroke:#000000;stroke-width:0.8;" x="34.7429" xlink:href="#m17ef4c640b" y="107.481842"/>
      </g>
     </g>
     <g id="text_8">
      <!-- 4 -->
      <g transform="translate(21.3804 111.281061)scale(0.1 -0.1)">
       <use xlink:href="#DejaVuSans-34"/>
      </g>
     </g>
    </g>
    <g id="ytick_5">
     <g id="line2d_13">
      <path clip-path="url(#p90f1c982e1)" d="M 34.7429 57.345001 
L 308.274875 57.345001 
" style="fill:none;stroke:#b0b0b0;stroke-dasharray:2.96,1.28;stroke-dashoffset:0;stroke-width:0.8;"/>
     </g>
     <g id="line2d_14">
      <g>
       <use style="stroke:#000000;stroke-width:0.8;" x="34.7429" xlink:href="#m17ef4c640b" y="57.345001"/>
      </g>
     </g>
     <g id="text_9">
      <!-- 5 -->
      <g transform="translate(21.3804 61.14422)scale(0.1 -0.1)">
       <use xlink:href="#DejaVuSans-35"/>
      </g>
     </g>
    </g>
    <g id="text_10">
     <!-- CI (CTV) -->
     <g transform="translate(14.884775 160.826237)rotate(-90)scale(0.12 -0.12)">
      <defs>
       <path d="M 4122 4306 
L 4122 3641 
Q 3803 3938 3442 4084 
Q 3081 4231 2675 4231 
Q 1875 4231 1450 3742 
Q 1025 3253 1025 2328 
Q 1025 1406 1450 917 
Q 1875 428 2675 428 
Q 3081 428 3442 575 
Q 3803 722 4122 1019 
L 4122 359 
Q 3791 134 3420 21 
Q 3050 -91 2638 -91 
Q 1578 -91 968 557 
Q 359 1206 359 2328 
Q 359 3453 968 4101 
Q 1578 4750 2638 4750 
Q 3056 4750 3426 4639 
Q 3797 4528 4122 4306 
z
" id="DejaVuSans-43" transform="scale(0.015625)"/>
       <path d="M 628 4666 
L 1259 4666 
L 1259 0 
L 628 0 
L 628 4666 
z
" id="DejaVuSans-49" transform="scale(0.015625)"/>
       <path id="DejaVuSans-20" transform="scale(0.015625)"/>
       <path d="M 1984 4856 
Q 1566 4138 1362 3434 
Q 1159 2731 1159 2009 
Q 1159 1288 1364 580 
Q 1569 -128 1984 -844 
L 1484 -844 
Q 1016 -109 783 600 
Q 550 1309 550 2009 
Q 550 2706 781 3412 
Q 1013 4119 1484 4856 
L 1984 4856 
z
" id="DejaVuSans-28" transform="scale(0.015625)"/>
       <path d="M -19 4666 
L 3928 4666 
L 3928 4134 
L 2272 4134 
L 2272 0 
L 1638 0 
L 1638 4134 
L -19 4134 
L -19 4666 
z
" id="DejaVuSans-54" transform="scale(0.015625)"/>
       <path d="M 1831 0 
L 50 4666 
L 709 4666 
L 2188 738 
L 3669 4666 
L 4325 4666 
L 2547 0 
L 1831 0 
z
" id="DejaVuSans-56" transform="scale(0.015625)"/>
       <path d="M 513 4856 
L 1013 4856 
Q 1481 4119 1714 3412 
Q 1947 2706 1947 2009 
Q 1947 1309 1714 600 
Q 1481 -109 1013 -844 
L 513 -844 
Q 928 -128 1133 580 
Q 1338 1288 1338 2009 
Q 1338 2731 1133 3434 
Q 928 4138 513 4856 
z
" id="DejaVuSans-29" transform="scale(0.015625)"/>
      </defs>
      <use xlink:href="#DejaVuSans-43"/>
      <use x="69.824219" xlink:href="#DejaVuSans-49"/>
      <use x="99.316406" xlink:href="#DejaVuSans-20"/>
      <use x="131.103516" xlink:href="#DejaVuSans-28"/>
      <use x="170.117188" xlink:href="#DejaVuSans-43"/>
      <use x="239.941406" xlink:href="#DejaVuSans-54"/>
      <use x="301.025391" xlink:href="#DejaVuSans-56"/>
      <use x="369.433594" xlink:href="#DejaVuSans-29"/>
     </g>
    </g>
   </g>
   <g id="line2d_15">
    <path clip-path="url(#p90f1c982e1)" d="M 58.676948 194.077353 
L 58.676948 218.505709 
" style="fill:none;stroke:#0000ff;stroke-linecap:square;"/>
   </g>
   <g id="line2d_16">
    <path clip-path="url(#p90f1c982e1)" d="M 58.676948 154.277877 
L 58.676948 109.804079 
" style="fill:none;stroke:#0000ff;stroke-linecap:square;"/>
   </g>
   <g id="line2d_17">
    <path clip-path="url(#p90f1c982e1)" d="M 54.403011 218.505709 
L 62.950885 218.505709 
" style="fill:none;stroke:#0000ff;stroke-linecap:square;"/>
   </g>
   <g id="line2d_18">
    <path clip-path="url(#p90f1c982e1)" d="M 54.403011 109.804079 
L 62.950885 109.804079 
" style="fill:none;stroke:#0000ff;stroke-linecap:square;"/>
   </g>
   <g id="line2d_19">
    <defs>
     <path d="M -2.5 2.5 
L 2.5 -2.5 
M -2.5 -2.5 
L 2.5 2.5 
" id="m535db8b74e" style="stroke:#0000ff;"/>
    </defs>
    <g clip-path="url(#p90f1c982e1)">
     <use style="fill-opacity:0;stroke:#0000ff;" x="58.676948" xlink:href="#m535db8b74e" y="84.463427"/>
    </g>
   </g>
   <g id="line2d_20">
    <path clip-path="url(#p90f1c982e1)" d="M 127.059942 216.874543 
L 127.059942 232.613889 
" style="fill:none;stroke:#0000ff;stroke-linecap:square;"/>
   </g>
   <g id="line2d_21">
    <path clip-path="url(#p90f1c982e1)" d="M 127.059942 185.95422 
L 127.059942 156.697332 
" style="fill:none;stroke:#0000ff;stroke-linecap:square;"/>
   </g>
   <g id="line2d_22">
    <path clip-path="url(#p90f1c982e1)" d="M 122.786004 232.613889 
L 131.333879 232.613889 
" style="fill:none;stroke:#0000ff;stroke-linecap:square;"/>
   </g>
   <g id="line2d_23">
    <path clip-path="url(#p90f1c982e1)" d="M 122.786004 156.697332 
L 131.333879 156.697332 
" style="fill:none;stroke:#0000ff;stroke-linecap:square;"/>
   </g>
   <g id="line2d_24"/>
   <g id="line2d_25">
    <path clip-path="url(#p90f1c982e1)" d="M 195.442935 231.525774 
L 195.442935 241.743107 
" style="fill:none;stroke:#0000ff;stroke-linecap:square;"/>
   </g>
   <g id="line2d_26">
    <path clip-path="url(#p90f1c982e1)" d="M 195.442935 209.705942 
L 195.442935 197.697444 
" style="fill:none;stroke:#0000ff;stroke-linecap:square;"/>
   </g>
   <g id="line2d_27">
    <path clip-path="url(#p90f1c982e1)" d="M 191.168998 241.743107 
L 199.716872 241.743107 
" style="fill:none;stroke:#0000ff;stroke-linecap:square;"/>
   </g>
   <g id="line2d_28">
    <path clip-path="url(#p90f1c982e1)" d="M 191.168998 197.697444 
L 199.716872 197.697444 
" style="fill:none;stroke:#0000ff;stroke-linecap:square;"/>
   </g>
   <g id="line2d_29"/>
   <g id="line2d_30">
    <path clip-path="url(#p90f1c982e1)" d="M 263.825929 245.508681 
L 263.825929 250.427277 
" style="fill:none;stroke:#0000ff;stroke-linecap:square;"/>
   </g>
   <g id="line2d_31">
    <path clip-path="url(#p90f1c982e1)" d="M 263.825929 234.683038 
L 263.825929 226.045585 
" style="fill:none;stroke:#0000ff;stroke-linecap:square;"/>
   </g>
   <g id="line2d_32">
    <path clip-path="url(#p90f1c982e1)" d="M 259.551992 250.427277 
L 268.099866 250.427277 
" style="fill:none;stroke:#0000ff;stroke-linecap:square;"/>
   </g>
   <g id="line2d_33">
    <path clip-path="url(#p90f1c982e1)" d="M 259.551992 226.045585 
L 268.099866 226.045585 
" style="fill:none;stroke:#0000ff;stroke-linecap:square;"/>
   </g>
   <g id="line2d_34"/>
   <g id="line2d_35">
    <path clip-path="url(#p90f1c982e1)" d="M 79.191846 169.088659 
L 79.191846 200.508448 
" style="fill:none;stroke:#ffa500;stroke-linecap:square;"/>
   </g>
   <g id="line2d_36">
    <path clip-path="url(#p90f1c982e1)" d="M 79.191846 117.533382 
L 79.191846 60.60657 
" style="fill:none;stroke:#ffa500;stroke-linecap:square;"/>
   </g>
   <g id="line2d_37">
    <path clip-path="url(#p90f1c982e1)" d="M 74.917909 200.508448 
L 83.465783 200.508448 
" style="fill:none;stroke:#ffa500;stroke-linecap:square;"/>
   </g>
   <g id="line2d_38">
    <path clip-path="url(#p90f1c982e1)" d="M 74.917909 60.60657 
L 83.465783 60.60657 
" style="fill:none;stroke:#ffa500;stroke-linecap:square;"/>
   </g>
   <g id="line2d_39">
    <defs>
     <path d="M -2.5 2.5 
L 2.5 -2.5 
M -2.5 -2.5 
L 2.5 2.5 
" id="m797c627bb8" style="stroke:#ffa500;"/>
    </defs>
    <g clip-path="url(#p90f1c982e1)">
     <use style="fill-opacity:0;stroke:#ffa500;" x="79.191846" xlink:href="#m797c627bb8" y="22.210823"/>
    </g>
   </g>
   <g id="line2d_40">
    <path clip-path="url(#p90f1c982e1)" d="M 147.57484 197.896382 
L 147.57484 220.946955 
" style="fill:none;stroke:#ffa500;stroke-linecap:square;"/>
   </g>
   <g id="line2d_41">
    <path clip-path="url(#p90f1c982e1)" d="M 147.57484 172.932304 
L 147.57484 148.825492 
" style="fill:none;stroke:#ffa500;stroke-linecap:square;"/>
   </g>
   <g id="line2d_42">
    <path clip-path="url(#p90f1c982e1)" d="M 143.300903 220.946955 
L 151.848777 220.946955 
" style="fill:none;stroke:#ffa500;stroke-linecap:square;"/>
   </g>
   <g id="line2d_43">
    <path clip-path="url(#p90f1c982e1)" d="M 143.300903 148.825492 
L 151.848777 148.825492 
" style="fill:none;stroke:#ffa500;stroke-linecap:square;"/>
   </g>
   <g id="line2d_44">
    <g clip-path="url(#p90f1c982e1)">
     <use style="fill-opacity:0;stroke:#ffa500;" x="147.57484" xlink:href="#m797c627bb8" y="134.193338"/>
    </g>
   </g>
   <g id="line2d_45">
    <path clip-path="url(#p90f1c982e1)" d="M 215.957833 223.494567 
L 215.957833 236.092778 
" style="fill:none;stroke:#ffa500;stroke-linecap:square;"/>
   </g>
   <g id="line2d_46">
    <path clip-path="url(#p90f1c982e1)" d="M 215.957833 203.991523 
L 215.957833 184.311523 
" style="fill:none;stroke:#ffa500;stroke-linecap:square;"/>
   </g>
   <g id="line2d_47">
    <path clip-path="url(#p90f1c982e1)" d="M 211.683896 236.092778 
L 220.231771 236.092778 
" style="fill:none;stroke:#ffa500;stroke-linecap:square;"/>
   </g>
   <g id="line2d_48">
    <path clip-path="url(#p90f1c982e1)" d="M 211.683896 184.311523 
L 220.231771 184.311523 
" style="fill:none;stroke:#ffa500;stroke-linecap:square;"/>
   </g>
   <g id="line2d_49"/>
   <g id="line2d_50">
    <path clip-path="url(#p90f1c982e1)" d="M 284.340827 239.398412 
L 284.340827 243.725176 
" style="fill:none;stroke:#ffa500;stroke-linecap:square;"/>
   </g>
   <g id="line2d_51">
    <path clip-path="url(#p90f1c982e1)" d="M 284.340827 217.332619 
L 284.340827 201.178258 
" style="fill:none;stroke:#ffa500;stroke-linecap:square;"/>
   </g>
   <g id="line2d_52">
    <path clip-path="url(#p90f1c982e1)" d="M 280.06689 243.725176 
L 288.614764 243.725176 
" style="fill:none;stroke:#ffa500;stroke-linecap:square;"/>
   </g>
   <g id="line2d_53">
    <path clip-path="url(#p90f1c982e1)" d="M 280.06689 201.178258 
L 288.614764 201.178258 
" style="fill:none;stroke:#ffa500;stroke-linecap:square;"/>
   </g>
   <g id="line2d_54"/>
   <g id="patch_3">
    <path clip-path="url(#p90f1c982e1)" d="M 50.129074 194.077353 
L 67.224822 194.077353 
L 67.224822 198.848537 
L 62.950885 185.213154 
L 67.224822 171.57777 
L 67.224822 154.277877 
L 50.129074 154.277877 
L 50.129074 171.57777 
L 54.403011 185.213154 
L 50.129074 198.848537 
L 50.129074 194.077353 
z
" style="fill:#0000ff;opacity:0.3;stroke:#0000ff;stroke-linejoin:miter;"/>
   </g>
   <g id="patch_4">
    <path clip-path="url(#p90f1c982e1)" d="M 118.512067 216.874543 
L 135.607816 216.874543 
L 135.607816 218.26958 
L 131.333879 207.676214 
L 135.607816 197.082847 
L 135.607816 185.95422 
L 118.512067 185.95422 
L 118.512067 197.082847 
L 122.786004 207.676214 
L 118.512067 218.26958 
L 118.512067 216.874543 
z
" style="fill:#0000ff;opacity:0.3;stroke:#0000ff;stroke-linejoin:miter;"/>
   </g>
   <g id="patch_5">
    <path clip-path="url(#p90f1c982e1)" d="M 186.895061 231.525774 
L 203.99081 231.525774 
L 203.99081 232.257552 
L 199.716872 224.782032 
L 203.99081 217.306512 
L 203.99081 209.705942 
L 186.895061 209.705942 
L 186.895061 217.306512 
L 191.168998 224.782032 
L 186.895061 232.257552 
L 186.895061 231.525774 
z
" style="fill:#0000ff;opacity:0.3;stroke:#0000ff;stroke-linejoin:miter;"/>
   </g>
   <g id="patch_6">
    <path clip-path="url(#p90f1c982e1)" d="M 255.278055 245.508681 
L 272.373803 245.508681 
L 272.373803 245.495755 
L 268.099866 241.786867 
L 272.373803 238.077979 
L 272.373803 234.683038 
L 255.278055 234.683038 
L 255.278055 238.077979 
L 259.551992 241.786867 
L 255.278055 245.495755 
L 255.278055 245.508681 
z
" style="fill:#0000ff;opacity:0.3;stroke:#0000ff;stroke-linejoin:miter;"/>
   </g>
   <g id="patch_7">
    <path clip-path="url(#p90f1c982e1)" d="M 70.643972 169.088659 
L 87.73972 169.088659 
L 87.73972 160.559812 
L 83.465783 142.896867 
L 87.73972 125.233921 
L 87.73972 117.533382 
L 70.643972 117.533382 
L 70.643972 125.233921 
L 74.917909 142.896867 
L 70.643972 160.559812 
L 70.643972 169.088659 
z
" style="fill:#ffa500;opacity:0.3;stroke:#ffa500;stroke-linejoin:miter;"/>
   </g>
   <g id="patch_8">
    <path clip-path="url(#p90f1c982e1)" d="M 139.026965 197.896382 
L 156.122714 197.896382 
L 156.122714 200.884802 
L 151.848777 192.332057 
L 156.122714 183.779312 
L 156.122714 172.932304 
L 139.026965 172.932304 
L 139.026965 183.779312 
L 143.300903 192.332057 
L 139.026965 200.884802 
L 139.026965 197.896382 
z
" style="fill:#ffa500;opacity:0.3;stroke:#ffa500;stroke-linejoin:miter;"/>
   </g>
   <g id="patch_9">
    <path clip-path="url(#p90f1c982e1)" d="M 207.409959 223.494567 
L 224.505708 223.494567 
L 224.505708 222.60362 
L 220.231771 215.921836 
L 224.505708 209.240053 
L 224.505708 203.991523 
L 207.409959 203.991523 
L 207.409959 209.240053 
L 211.683896 215.921836 
L 207.409959 222.60362 
L 207.409959 223.494567 
z
" style="fill:#ffa500;opacity:0.3;stroke:#ffa500;stroke-linejoin:miter;"/>
   </g>
   <g id="patch_10">
    <path clip-path="url(#p90f1c982e1)" d="M 275.792953 239.398412 
L 292.888701 239.398412 
L 292.888701 240.412256 
L 288.614764 232.852469 
L 292.888701 225.292682 
L 292.888701 217.332619 
L 275.792953 217.332619 
L 275.792953 225.292682 
L 280.06689 232.852469 
L 275.792953 240.412256 
L 275.792953 239.398412 
z
" style="fill:#ffa500;opacity:0.3;stroke:#ffa500;stroke-linejoin:miter;"/>
   </g>
   <g id="line2d_55">
    <path clip-path="url(#p90f1c982e1)" d="M 54.403011 185.213154 
L 62.950885 185.213154 
" style="fill:none;stroke:#0000ff;stroke-linecap:square;"/>
   </g>
   <g id="line2d_56">
    <path clip-path="url(#p90f1c982e1)" d="M 122.786004 207.676214 
L 131.333879 207.676214 
" style="fill:none;stroke:#0000ff;stroke-linecap:square;"/>
   </g>
   <g id="line2d_57">
    <path clip-path="url(#p90f1c982e1)" d="M 191.168998 224.782032 
L 199.716872 224.782032 
" style="fill:none;stroke:#0000ff;stroke-linecap:square;"/>
   </g>
   <g id="line2d_58">
    <path clip-path="url(#p90f1c982e1)" d="M 259.551992 241.786867 
L 268.099866 241.786867 
" style="fill:none;stroke:#0000ff;stroke-linecap:square;"/>
   </g>
   <g id="line2d_59">
    <path clip-path="url(#p90f1c982e1)" d="M 74.917909 142.896867 
L 83.465783 142.896867 
" style="fill:none;stroke:#ffa500;stroke-linecap:square;"/>
   </g>
   <g id="line2d_60">
    <path clip-path="url(#p90f1c982e1)" d="M 143.300903 192.332057 
L 151.848777 192.332057 
" style="fill:none;stroke:#ffa500;stroke-linecap:square;"/>
   </g>
   <g id="line2d_61">
    <path clip-path="url(#p90f1c982e1)" d="M 211.683896 215.921836 
L 220.231771 215.921836 
" style="fill:none;stroke:#ffa500;stroke-linecap:square;"/>
   </g>
   <g id="line2d_62">
    <path clip-path="url(#p90f1c982e1)" d="M 280.06689 232.852469 
L 288.614764 232.852469 
" style="fill:none;stroke:#ffa500;stroke-linecap:square;"/>
   </g>
   <g id="patch_11">
    <path d="M 34.7429 261.8381 
L 34.7429 10.8 
" style="fill:none;stroke:#000000;stroke-linecap:square;stroke-linejoin:miter;stroke-width:0.8;"/>
   </g>
   <g id="patch_12">
    <path d="M 308.274875 261.8381 
L 308.274875 10.8 
" style="fill:none;stroke:#000000;stroke-linecap:square;stroke-linejoin:miter;stroke-width:0.8;"/>
   </g>
   <g id="patch_13">
    <path d="M 34.7429 261.8381 
L 308.274875 261.8381 
" style="fill:none;stroke:#000000;stroke-linecap:square;stroke-linejoin:miter;stroke-width:0.8;"/>
   </g>
   <g id="patch_14">
    <path d="M 34.7429 10.8 
L 308.274875 10.8 
" style="fill:none;stroke:#000000;stroke-linecap:square;stroke-linejoin:miter;stroke-width:0.8;"/>
   </g>
   <g id="legend_1">
    <g id="patch_15">
     <path d="M 241.454562 48.15625 
L 301.274875 48.15625 
Q 303.274875 48.15625 303.274875 46.15625 
L 303.274875 17.8 
Q 303.274875 15.8 301.274875 15.8 
L 241.454562 15.8 
Q 239.454562 15.8 239.454562 17.8 
L 239.454562 46.15625 
Q 239.454562 48.15625 241.454562 48.15625 
z
" style="fill:#ffffff;opacity:0.8;stroke:#cccccc;stroke-linejoin:miter;"/>
    </g>
    <g id="patch_16">
     <path d="M 243.454562 27.398438 
L 263.454562 27.398438 
L 263.454562 20.398438 
L 243.454562 20.398438 
z
" style="fill:#0000ff;opacity:0.3;stroke:#0000ff;stroke-linejoin:miter;"/>
    </g>
    <g id="text_11">
     <!-- MBRT -->
     <g transform="translate(271.454562 27.398438)scale(0.1 -0.1)">
      <defs>
       <path d="M 628 4666 
L 1569 4666 
L 2759 1491 
L 3956 4666 
L 4897 4666 
L 4897 0 
L 4281 0 
L 4281 4097 
L 3078 897 
L 2444 897 
L 1241 4097 
L 1241 0 
L 628 0 
L 628 4666 
z
" id="DejaVuSans-4d" transform="scale(0.015625)"/>
       <path d="M 1259 2228 
L 1259 519 
L 2272 519 
Q 2781 519 3026 730 
Q 3272 941 3272 1375 
Q 3272 1813 3026 2020 
Q 2781 2228 2272 2228 
L 1259 2228 
z
M 1259 4147 
L 1259 2741 
L 2194 2741 
Q 2656 2741 2882 2914 
Q 3109 3088 3109 3444 
Q 3109 3797 2882 3972 
Q 2656 4147 2194 4147 
L 1259 4147 
z
M 628 4666 
L 2241 4666 
Q 2963 4666 3353 4366 
Q 3744 4066 3744 3513 
Q 3744 3084 3544 2831 
Q 3344 2578 2956 2516 
Q 3422 2416 3680 2098 
Q 3938 1781 3938 1306 
Q 3938 681 3513 340 
Q 3088 0 2303 0 
L 628 0 
L 628 4666 
z
" id="DejaVuSans-42" transform="scale(0.015625)"/>
       <path d="M 2841 2188 
Q 3044 2119 3236 1894 
Q 3428 1669 3622 1275 
L 4263 0 
L 3584 0 
L 2988 1197 
Q 2756 1666 2539 1819 
Q 2322 1972 1947 1972 
L 1259 1972 
L 1259 0 
L 628 0 
L 628 4666 
L 2053 4666 
Q 2853 4666 3247 4331 
Q 3641 3997 3641 3322 
Q 3641 2881 3436 2590 
Q 3231 2300 2841 2188 
z
M 1259 4147 
L 1259 2491 
L 2053 2491 
Q 2509 2491 2742 2702 
Q 2975 2913 2975 3322 
Q 2975 3731 2742 3939 
Q 2509 4147 2053 4147 
L 1259 4147 
z
" id="DejaVuSans-52" transform="scale(0.015625)"/>
      </defs>
      <use xlink:href="#DejaVuSans-4d"/>
      <use x="86.279297" xlink:href="#DejaVuSans-42"/>
      <use x="154.882812" xlink:href="#DejaVuSans-52"/>
      <use x="217.115234" xlink:href="#DejaVuSans-54"/>
     </g>
    </g>
    <g id="patch_17">
     <path d="M 243.454562 42.076562 
L 263.454562 42.076562 
L 263.454562 35.076562 
L 243.454562 35.076562 
z
" style="fill:#ffa500;opacity:0.3;stroke:#ffa500;stroke-linejoin:miter;"/>
    </g>
    <g id="text_12">
     <!-- VMAT -->
     <g transform="translate(271.454562 42.076562)scale(0.1 -0.1)">
      <defs>
       <path d="M 2188 4044 
L 1331 1722 
L 3047 1722 
L 2188 4044 
z
M 1831 4666 
L 2547 4666 
L 4325 0 
L 3669 0 
L 3244 1197 
L 1141 1197 
L 716 0 
L 50 0 
L 1831 4666 
z
" id="DejaVuSans-41" transform="scale(0.015625)"/>
      </defs>
      <use xlink:href="#DejaVuSans-56"/>
      <use x="68.408203" xlink:href="#DejaVuSans-4d"/>
      <use x="154.6875" xlink:href="#DejaVuSans-41"/>
      <use x="215.345703" xlink:href="#DejaVuSans-54"/>
     </g>
    </g>
   </g>
  </g>
  <g id="axes_2">
   <g id="patch_18">
    <path d="M 363.668025 261.8381 
L 637.2 261.8381 
L 637.2 10.8 
L 363.668025 10.8 
z
" style="fill:#ffffff;"/>
   </g>
   <g id="matplotlib.axis_3">
    <g id="xtick_5">
     <g id="line2d_63">
      <g>
       <use style="stroke:#000000;stroke-width:0.8;" x="500.434012" xlink:href="#m6ff574f380" y="261.8381"/>
      </g>
     </g>
    </g>
   </g>
   <g id="matplotlib.axis_4">
    <g id="ytick_6">
     <g id="line2d_64">
      <path clip-path="url(#p46715a2cc1)" d="M 363.668025 224.347555 
L 637.2 224.347555 
" style="fill:none;stroke:#b0b0b0;stroke-dasharray:2.96,1.28;stroke-dashoffset:0;stroke-width:0.8;"/>
     </g>
     <g id="line2d_65">
      <g>
       <use style="stroke:#000000;stroke-width:0.8;" x="363.668025" xlink:href="#m17ef4c640b" y="224.347555"/>
      </g>
     </g>
     <g id="text_13">
      <!-- 0.04 -->
      <g transform="translate(334.4024 228.146774)scale(0.1 -0.1)">
       <defs>
        <path d="M 684 794 
L 1344 794 
L 1344 0 
L 684 0 
L 684 794 
z
" id="DejaVuSans-2e" transform="scale(0.015625)"/>
       </defs>
       <use xlink:href="#DejaVuSans-30"/>
       <use x="63.623047" xlink:href="#DejaVuSans-2e"/>
       <use x="95.410156" xlink:href="#DejaVuSans-30"/>
       <use x="159.033203" xlink:href="#DejaVuSans-34"/>
      </g>
     </g>
    </g>
    <g id="ytick_7">
     <g id="line2d_66">
      <path clip-path="url(#p46715a2cc1)" d="M 363.668025 182.263392 
L 637.2 182.263392 
" style="fill:none;stroke:#b0b0b0;stroke-dasharray:2.96,1.28;stroke-dashoffset:0;stroke-width:0.8;"/>
     </g>
     <g id="line2d_67">
      <g>
       <use style="stroke:#000000;stroke-width:0.8;" x="363.668025" xlink:href="#m17ef4c640b" y="182.263392"/>
      </g>
     </g>
     <g id="text_14">
      <!-- 0.06 -->
      <g transform="translate(334.4024 186.062611)scale(0.1 -0.1)">
       <use xlink:href="#DejaVuSans-30"/>
       <use x="63.623047" xlink:href="#DejaVuSans-2e"/>
       <use x="95.410156" xlink:href="#DejaVuSans-30"/>
       <use x="159.033203" xlink:href="#DejaVuSans-36"/>
      </g>
     </g>
    </g>
    <g id="ytick_8">
     <g id="line2d_68">
      <path clip-path="url(#p46715a2cc1)" d="M 363.668025 140.179229 
L 637.2 140.179229 
" style="fill:none;stroke:#b0b0b0;stroke-dasharray:2.96,1.28;stroke-dashoffset:0;stroke-width:0.8;"/>
     </g>
     <g id="line2d_69">
      <g>
       <use style="stroke:#000000;stroke-width:0.8;" x="363.668025" xlink:href="#m17ef4c640b" y="140.179229"/>
      </g>
     </g>
     <g id="text_15">
      <!-- 0.08 -->
      <g transform="translate(334.4024 143.978448)scale(0.1 -0.1)">
       <use xlink:href="#DejaVuSans-30"/>
       <use x="63.623047" xlink:href="#DejaVuSans-2e"/>
       <use x="95.410156" xlink:href="#DejaVuSans-30"/>
       <use x="159.033203" xlink:href="#DejaVuSans-38"/>
      </g>
     </g>
    </g>
    <g id="ytick_9">
     <g id="line2d_70">
      <path clip-path="url(#p46715a2cc1)" d="M 363.668025 98.095066 
L 637.2 98.095066 
" style="fill:none;stroke:#b0b0b0;stroke-dasharray:2.96,1.28;stroke-dashoffset:0;stroke-width:0.8;"/>
     </g>
     <g id="line2d_71">
      <g>
       <use style="stroke:#000000;stroke-width:0.8;" x="363.668025" xlink:href="#m17ef4c640b" y="98.095066"/>
      </g>
     </g>
     <g id="text_16">
      <!-- 0.10 -->
      <g transform="translate(334.4024 101.894285)scale(0.1 -0.1)">
       <use xlink:href="#DejaVuSans-30"/>
       <use x="63.623047" xlink:href="#DejaVuSans-2e"/>
       <use x="95.410156" xlink:href="#DejaVuSans-31"/>
       <use x="159.033203" xlink:href="#DejaVuSans-30"/>
      </g>
     </g>
    </g>
    <g id="ytick_10">
     <g id="line2d_72">
      <path clip-path="url(#p46715a2cc1)" d="M 363.668025 56.010904 
L 637.2 56.010904 
" style="fill:none;stroke:#b0b0b0;stroke-dasharray:2.96,1.28;stroke-dashoffset:0;stroke-width:0.8;"/>
     </g>
     <g id="line2d_73">
      <g>
       <use style="stroke:#000000;stroke-width:0.8;" x="363.668025" xlink:href="#m17ef4c640b" y="56.010904"/>
      </g>
     </g>
     <g id="text_17">
      <!-- 0.12 -->
      <g transform="translate(334.4024 59.810122)scale(0.1 -0.1)">
       <use xlink:href="#DejaVuSans-30"/>
       <use x="63.623047" xlink:href="#DejaVuSans-2e"/>
       <use x="95.410156" xlink:href="#DejaVuSans-31"/>
       <use x="159.033203" xlink:href="#DejaVuSans-32"/>
      </g>
     </g>
    </g>
    <g id="ytick_11">
     <g id="line2d_74">
      <path clip-path="url(#p46715a2cc1)" d="M 363.668025 13.926741 
L 637.2 13.926741 
" style="fill:none;stroke:#b0b0b0;stroke-dasharray:2.96,1.28;stroke-dashoffset:0;stroke-width:0.8;"/>
     </g>
     <g id="line2d_75">
      <g>
       <use style="stroke:#000000;stroke-width:0.8;" x="363.668025" xlink:href="#m17ef4c640b" y="13.926741"/>
      </g>
     </g>
     <g id="text_18">
      <!-- 0.14 -->
      <g transform="translate(334.4024 17.725959)scale(0.1 -0.1)">
       <use xlink:href="#DejaVuSans-30"/>
       <use x="63.623047" xlink:href="#DejaVuSans-2e"/>
       <use x="95.410156" xlink:href="#DejaVuSans-31"/>
       <use x="159.033203" xlink:href="#DejaVuSans-34"/>
      </g>
     </g>
    </g>
    <g id="text_19">
     <!-- HI (CTV) -->
     <g transform="translate(327.906775 161.148738)rotate(-90)scale(0.12 -0.12)">
      <defs>
       <path d="M 628 4666 
L 1259 4666 
L 1259 2753 
L 3553 2753 
L 3553 4666 
L 4184 4666 
L 4184 0 
L 3553 0 
L 3553 2222 
L 1259 2222 
L 1259 0 
L 628 0 
L 628 4666 
z
" id="DejaVuSans-48" transform="scale(0.015625)"/>
      </defs>
      <use xlink:href="#DejaVuSans-48"/>
      <use x="75.195312" xlink:href="#DejaVuSans-49"/>
      <use x="104.6875" xlink:href="#DejaVuSans-20"/>
      <use x="136.474609" xlink:href="#DejaVuSans-28"/>
      <use x="175.488281" xlink:href="#DejaVuSans-43"/>
      <use x="245.3125" xlink:href="#DejaVuSans-54"/>
      <use x="306.396484" xlink:href="#DejaVuSans-56"/>
      <use x="374.804688" xlink:href="#DejaVuSans-29"/>
     </g>
    </g>
   </g>
   <g id="line2d_76">
    <path clip-path="url(#p46715a2cc1)" d="M 459.404216 169.83792 
L 459.404216 194.010805 
" style="fill:none;stroke:#0000ff;stroke-linecap:square;"/>
   </g>
   <g id="line2d_77">
    <path clip-path="url(#p46715a2cc1)" d="M 459.404216 148.298522 
L 459.404216 128.587027 
" style="fill:none;stroke:#0000ff;stroke-linecap:square;"/>
   </g>
   <g id="line2d_78">
    <path clip-path="url(#p46715a2cc1)" d="M 454.275492 194.010805 
L 464.532941 194.010805 
" style="fill:none;stroke:#0000ff;stroke-linecap:square;"/>
   </g>
   <g id="line2d_79">
    <path clip-path="url(#p46715a2cc1)" d="M 454.275492 128.587027 
L 464.532941 128.587027 
" style="fill:none;stroke:#0000ff;stroke-linecap:square;"/>
   </g>
   <g id="line2d_80"/>
   <g id="line2d_81">
    <path clip-path="url(#p46715a2cc1)" d="M 541.463809 197.0404 
L 541.463809 250.427277 
" style="fill:none;stroke:#ffa500;stroke-linecap:square;"/>
   </g>
   <g id="line2d_82">
    <path clip-path="url(#p46715a2cc1)" d="M 541.463809 161.194108 
L 541.463809 146.181418 
" style="fill:none;stroke:#ffa500;stroke-linecap:square;"/>
   </g>
   <g id="line2d_83">
    <path clip-path="url(#p46715a2cc1)" d="M 536.335084 250.427277 
L 546.592533 250.427277 
" style="fill:none;stroke:#ffa500;stroke-linecap:square;"/>
   </g>
   <g id="line2d_84">
    <path clip-path="url(#p46715a2cc1)" d="M 536.335084 146.181418 
L 546.592533 146.181418 
" style="fill:none;stroke:#ffa500;stroke-linecap:square;"/>
   </g>
   <g id="line2d_85">
    <g clip-path="url(#p46715a2cc1)">
     <use style="fill-opacity:0;stroke:#ffa500;" x="541.463809" xlink:href="#m797c627bb8" y="22.210823"/>
    </g>
   </g>
   <g id="patch_19">
    <path clip-path="url(#p46715a2cc1)" d="M 449.146767 169.83792 
L 469.661665 169.83792 
L 469.661665 165.065789 
L 464.532941 157.686346 
L 469.661665 150.306904 
L 469.661665 148.298522 
L 449.146767 148.298522 
L 449.146767 150.306904 
L 454.275492 157.686346 
L 449.146767 165.065789 
L 449.146767 169.83792 
z
" style="fill:#0000ff;opacity:0.3;stroke:#0000ff;stroke-linejoin:miter;"/>
   </g>
   <g id="patch_20">
    <path clip-path="url(#p46715a2cc1)" d="M 531.20636 197.0404 
L 551.721258 197.0404 
L 551.721258 194.809594 
L 546.592533 182.528579 
L 551.721258 170.247564 
L 551.721258 161.194108 
L 531.20636 161.194108 
L 531.20636 170.247564 
L 536.335084 182.528579 
L 531.20636 194.809594 
L 531.20636 197.0404 
z
" style="fill:#ffa500;opacity:0.3;stroke:#ffa500;stroke-linejoin:miter;"/>
   </g>
   <g id="line2d_86">
    <path clip-path="url(#p46715a2cc1)" d="M 454.275492 157.686346 
L 464.532941 157.686346 
" style="fill:none;stroke:#0000ff;stroke-linecap:square;"/>
   </g>
   <g id="line2d_87">
    <path clip-path="url(#p46715a2cc1)" d="M 536.335084 182.528579 
L 546.592533 182.528579 
" style="fill:none;stroke:#ffa500;stroke-linecap:square;"/>
   </g>
   <g id="patch_21">
    <path d="M 363.668025 261.8381 
L 363.668025 10.8 
" style="fill:none;stroke:#000000;stroke-linecap:square;stroke-linejoin:miter;stroke-width:0.8;"/>
   </g>
   <g id="patch_22">
    <path d="M 637.2 261.8381 
L 637.2 10.8 
" style="fill:none;stroke:#000000;stroke-linecap:square;stroke-linejoin:miter;stroke-width:0.8;"/>
   </g>
   <g id="patch_23">
    <path d="M 363.668025 261.8381 
L 637.2 261.8381 
" style="fill:none;stroke:#000000;stroke-linecap:square;stroke-linejoin:miter;stroke-width:0.8;"/>
   </g>
   <g id="patch_24">
    <path d="M 363.668025 10.8 
L 637.2 10.8 
" style="fill:none;stroke:#000000;stroke-linecap:square;stroke-linejoin:miter;stroke-width:0.8;"/>
   </g>
   <g id="legend_2">
    <g id="patch_25">
     <path d="M 570.379687 48.15625 
L 630.2 48.15625 
Q 632.2 48.15625 632.2 46.15625 
L 632.2 17.8 
Q 632.2 15.8 630.2 15.8 
L 570.379687 15.8 
Q 568.379687 15.8 568.379687 17.8 
L 568.379687 46.15625 
Q 568.379687 48.15625 570.379687 48.15625 
z
" style="fill:#ffffff;opacity:0.8;stroke:#cccccc;stroke-linejoin:miter;"/>
    </g>
    <g id="patch_26">
     <path d="M 572.379687 27.398438 
L 592.379687 27.398438 
L 592.379687 20.398438 
L 572.379687 20.398438 
z
" style="fill:#0000ff;opacity:0.3;stroke:#0000ff;stroke-linejoin:miter;"/>
    </g>
    <g id="text_20">
     <!-- MBRT -->
     <g transform="translate(600.379687 27.398438)scale(0.1 -0.1)">
      <use xlink:href="#DejaVuSans-4d"/>
      <use x="86.279297" xlink:href="#DejaVuSans-42"/>
      <use x="154.882812" xlink:href="#DejaVuSans-52"/>
      <use x="217.115234" xlink:href="#DejaVuSans-54"/>
     </g>
    </g>
    <g id="patch_27">
     <path d="M 572.379687 42.076562 
L 592.379687 42.076562 
L 592.379687 35.076562 
L 572.379687 35.076562 
z
" style="fill:#ffa500;opacity:0.3;stroke:#ffa500;stroke-linejoin:miter;"/>
    </g>
    <g id="text_21">
     <!-- VMAT -->
     <g transform="translate(600.379687 42.076562)scale(0.1 -0.1)">
      <use xlink:href="#DejaVuSans-56"/>
      <use x="68.408203" xlink:href="#DejaVuSans-4d"/>
      <use x="154.6875" xlink:href="#DejaVuSans-41"/>
      <use x="215.345703" xlink:href="#DejaVuSans-54"/>
     </g>
    </g>
   </g>
  </g>
 </g>
 <defs>
  <clipPath id="p90f1c982e1">
   <rect height="251.0381" width="273.531975" x="34.7429" y="10.8"/>
  </clipPath>
  <clipPath id="p46715a2cc1">
   <rect height="251.0381" width="273.531975" x="363.668025" y="10.8"/>
  </clipPath>
 </defs>
</svg>
