<?xml version="1.0" encoding="utf-8" standalone="no"?>
<!DOCTYPE svg PUBLIC "-//W3C//DTD SVG 1.1//EN"
  "http://www.w3.org/Graphics/SVG/1.1/DTD/svg11.dtd">
<svg height="288pt" version="1.1" viewBox="0 0 720 288" width="720pt" xmlns="http://www.w3.org/2000/svg" xmlns:xlink="http://www.w3.org/1999/xlink">
 <metadata>
  <rdf:RDF xmlns:cc="http://creativecommons.org/ns#" xmlns:dc="http://purl.org/dc/elements/1.1/" xmlns:rdf="http://www.w3.org/1999/02/22-rdf-syntax-ns#">
   <cc:Work>
    <dc:type rdf:resource="http://purl.org/dc/dcmitype/StillImage"/>
    <dc:date>2022-08-01T16:42:29.935659</dc:date>
    <dc:format>image/svg+xml</dc:format>
    <dc:creator>
     <cc:Agent>
      <dc:title>Matplotlib v3.4.2, https://matplotlib.org/</dc:title>
     </cc:Agent>
    </dc:creator>
   </cc:Work>
  </rdf:RDF>
 </metadata>
 <defs>
  <style type="text/css">*{stroke-linecap:butt;stroke-linejoin:round;}</style>
 </defs>
 <g id="figure_1">
  <g id="patch_1">
   <path d="M 0 288 
L 720 288 
L 720 0 
L 0 0 
z
" style="fill:#ffffff;"/>
  </g>
  <g id="axes_1">
   <g id="patch_2">
    <path d="M 51.914 252.776 
L 669.67 252.776 
L 669.67 10.8 
L 51.914 10.8 
z
" style="fill:#ffffff;"/>
   </g>
   <g id="PathCollection_1">
    <defs>
     <path d="M -0 5 
L 3 0 
L 0 -5 
L -3 -0 
z
" id="m53ddcbc8d6" style="stroke:#1f77b4;"/>
    </defs>
    <g clip-path="url(#p9bb8f76b4e)">
     <use style="fill:#1f77b4;stroke:#1f77b4;" x="90.52375" xlink:href="#m53ddcbc8d6" y="239.868961"/>
     <use style="fill:#1f77b4;stroke:#1f77b4;" x="91.102896" xlink:href="#m53ddcbc8d6" y="241.777091"/>
     <use style="fill:#1f77b4;stroke:#1f77b4;" x="91.682043" xlink:href="#m53ddcbc8d6" y="241.777091"/>
     <use style="fill:#1f77b4;stroke:#1f77b4;" x="92.261189" xlink:href="#m53ddcbc8d6" y="241.777091"/>
     <use style="fill:#1f77b4;stroke:#1f77b4;" x="92.840335" xlink:href="#m53ddcbc8d6" y="234.004313"/>
     <use style="fill:#1f77b4;stroke:#1f77b4;" x="93.419481" xlink:href="#m53ddcbc8d6" y="240.363046"/>
     <use style="fill:#1f77b4;stroke:#1f77b4;" x="93.998628" xlink:href="#m53ddcbc8d6" y="238.340535"/>
     <use style="fill:#1f77b4;stroke:#1f77b4;" x="94.577774" xlink:href="#m53ddcbc8d6" y="154.672731"/>
     <use style="fill:#1f77b4;stroke:#1f77b4;" x="95.15692" xlink:href="#m53ddcbc8d6" y="237.494674"/>
     <use style="fill:#1f77b4;stroke:#1f77b4;" x="95.736066" xlink:href="#m53ddcbc8d6" y="241.331648"/>
     <use style="fill:#1f77b4;stroke:#1f77b4;" x="96.315213" xlink:href="#m53ddcbc8d6" y="241.777091"/>
     <use style="fill:#1f77b4;stroke:#1f77b4;" x="96.894359" xlink:href="#m53ddcbc8d6" y="235.226364"/>
     <use style="fill:#1f77b4;stroke:#1f77b4;" x="97.473505" xlink:href="#m53ddcbc8d6" y="241.777091"/>
     <use style="fill:#1f77b4;stroke:#1f77b4;" x="98.052651" xlink:href="#m53ddcbc8d6" y="241.777091"/>
     <use style="fill:#1f77b4;stroke:#1f77b4;" x="98.631798" xlink:href="#m53ddcbc8d6" y="235.971564"/>
     <use style="fill:#1f77b4;stroke:#1f77b4;" x="99.210944" xlink:href="#m53ddcbc8d6" y="241.777091"/>
    </g>
   </g>
   <g id="PathCollection_2">
    <g clip-path="url(#p9bb8f76b4e)">
     <use style="fill:#1f77b4;stroke:#1f77b4;" x="214.07495" xlink:href="#m53ddcbc8d6" y="236.037942"/>
     <use style="fill:#1f77b4;stroke:#1f77b4;" x="216.391535" xlink:href="#m53ddcbc8d6" y="21.798909"/>
     <use style="fill:#1f77b4;stroke:#1f77b4;" x="218.70812" xlink:href="#m53ddcbc8d6" y="148.980718"/>
     <use style="fill:#1f77b4;stroke:#1f77b4;" x="221.024705" xlink:href="#m53ddcbc8d6" y="139.06306"/>
    </g>
   </g>
   <g id="PathCollection_3">
    <g clip-path="url(#p9bb8f76b4e)">
     <use style="fill:#1f77b4;stroke:#1f77b4;" x="337.62615" xlink:href="#m53ddcbc8d6" y="241.777091"/>
     <use style="fill:#1f77b4;stroke:#1f77b4;" x="339.479418" xlink:href="#m53ddcbc8d6" y="241.777091"/>
     <use style="fill:#1f77b4;stroke:#1f77b4;" x="341.332686" xlink:href="#m53ddcbc8d6" y="241.777091"/>
     <use style="fill:#1f77b4;stroke:#1f77b4;" x="343.185954" xlink:href="#m53ddcbc8d6" y="236.335438"/>
     <use style="fill:#1f77b4;stroke:#1f77b4;" x="345.039222" xlink:href="#m53ddcbc8d6" y="241.777091"/>
    </g>
   </g>
   <g id="PathCollection_4">
    <g clip-path="url(#p9bb8f76b4e)">
     <use style="fill:#1f77b4;stroke:#1f77b4;" x="461.17735" xlink:href="#m53ddcbc8d6" y="241.777091"/>
     <use style="fill:#1f77b4;stroke:#1f77b4;" x="464.26613" xlink:href="#m53ddcbc8d6" y="241.777091"/>
     <use style="fill:#1f77b4;stroke:#1f77b4;" x="467.35491" xlink:href="#m53ddcbc8d6" y="241.777091"/>
    </g>
   </g>
   <g id="PathCollection_5">
    <defs>
     <path d="M -5 5 
L 5 -5 
M -5 -5 
L 5 5 
" id="m995fc828e6" style="stroke:#ff7f0e;stroke-width:1.5;"/>
    </defs>
    <g clip-path="url(#p9bb8f76b4e)">
     <use style="fill:#ff7f0e;stroke:#ff7f0e;stroke-width:1.5;" x="127.58911" xlink:href="#m995fc828e6" y="231.436259"/>
     <use style="fill:#ff7f0e;stroke:#ff7f0e;stroke-width:1.5;" x="128.168256" xlink:href="#m995fc828e6" y="241.777091"/>
     <use style="fill:#ff7f0e;stroke:#ff7f0e;stroke-width:1.5;" x="128.747403" xlink:href="#m995fc828e6" y="241.777091"/>
     <use style="fill:#ff7f0e;stroke:#ff7f0e;stroke-width:1.5;" x="129.326549" xlink:href="#m995fc828e6" y="241.777091"/>
     <use style="fill:#ff7f0e;stroke:#ff7f0e;stroke-width:1.5;" x="129.905695" xlink:href="#m995fc828e6" y="219.697093"/>
     <use style="fill:#ff7f0e;stroke:#ff7f0e;stroke-width:1.5;" x="130.484841" xlink:href="#m995fc828e6" y="237.855118"/>
     <use style="fill:#ff7f0e;stroke:#ff7f0e;stroke-width:1.5;" x="131.063988" xlink:href="#m995fc828e6" y="206.789064"/>
     <use style="fill:#ff7f0e;stroke:#ff7f0e;stroke-width:1.5;" x="131.643134" xlink:href="#m995fc828e6" y="90.215678"/>
     <use style="fill:#ff7f0e;stroke:#ff7f0e;stroke-width:1.5;" x="132.22228" xlink:href="#m995fc828e6" y="220.756616"/>
     <use style="fill:#ff7f0e;stroke:#ff7f0e;stroke-width:1.5;" x="132.801426" xlink:href="#m995fc828e6" y="227.968348"/>
     <use style="fill:#ff7f0e;stroke:#ff7f0e;stroke-width:1.5;" x="133.380573" xlink:href="#m995fc828e6" y="241.777091"/>
     <use style="fill:#ff7f0e;stroke:#ff7f0e;stroke-width:1.5;" x="133.959719" xlink:href="#m995fc828e6" y="204.199568"/>
     <use style="fill:#ff7f0e;stroke:#ff7f0e;stroke-width:1.5;" x="134.538865" xlink:href="#m995fc828e6" y="241.777091"/>
     <use style="fill:#ff7f0e;stroke:#ff7f0e;stroke-width:1.5;" x="135.118011" xlink:href="#m995fc828e6" y="241.777091"/>
     <use style="fill:#ff7f0e;stroke:#ff7f0e;stroke-width:1.5;" x="135.697158" xlink:href="#m995fc828e6" y="235.745374"/>
     <use style="fill:#ff7f0e;stroke:#ff7f0e;stroke-width:1.5;" x="136.276304" xlink:href="#m995fc828e6" y="241.254318"/>
    </g>
   </g>
   <g id="PathCollection_6">
    <g clip-path="url(#p9bb8f76b4e)">
     <use style="fill:#ff7f0e;stroke:#ff7f0e;stroke-width:1.5;" x="251.14031" xlink:href="#m995fc828e6" y="235.252094"/>
     <use style="fill:#ff7f0e;stroke:#ff7f0e;stroke-width:1.5;" x="253.456895" xlink:href="#m995fc828e6" y="56.838441"/>
     <use style="fill:#ff7f0e;stroke:#ff7f0e;stroke-width:1.5;" x="255.77348" xlink:href="#m995fc828e6" y="141.801767"/>
     <use style="fill:#ff7f0e;stroke:#ff7f0e;stroke-width:1.5;" x="258.090065" xlink:href="#m995fc828e6" y="24.93636"/>
    </g>
   </g>
   <g id="PathCollection_7">
    <g clip-path="url(#p9bb8f76b4e)">
     <use style="fill:#ff7f0e;stroke:#ff7f0e;stroke-width:1.5;" x="374.69151" xlink:href="#m995fc828e6" y="241.777091"/>
     <use style="fill:#ff7f0e;stroke:#ff7f0e;stroke-width:1.5;" x="376.544778" xlink:href="#m995fc828e6" y="241.777091"/>
     <use style="fill:#ff7f0e;stroke:#ff7f0e;stroke-width:1.5;" x="378.398046" xlink:href="#m995fc828e6" y="241.777091"/>
     <use style="fill:#ff7f0e;stroke:#ff7f0e;stroke-width:1.5;" x="380.251314" xlink:href="#m995fc828e6" y="241.388401"/>
     <use style="fill:#ff7f0e;stroke:#ff7f0e;stroke-width:1.5;" x="382.104582" xlink:href="#m995fc828e6" y="241.777091"/>
    </g>
   </g>
   <g id="PathCollection_8">
    <g clip-path="url(#p9bb8f76b4e)">
     <use style="fill:#ff7f0e;stroke:#ff7f0e;stroke-width:1.5;" x="498.24271" xlink:href="#m995fc828e6" y="241.777091"/>
     <use style="fill:#ff7f0e;stroke:#ff7f0e;stroke-width:1.5;" x="501.33149" xlink:href="#m995fc828e6" y="241.777091"/>
     <use style="fill:#ff7f0e;stroke:#ff7f0e;stroke-width:1.5;" x="504.42027" xlink:href="#m995fc828e6" y="241.777091"/>
    </g>
   </g>
   <g id="matplotlib.axis_1">
    <g id="xtick_1">
     <g id="line2d_1">
      <defs>
       <path d="M 0 0 
L 0 3.5 
" id="m5140e7c8f6" style="stroke:#000000;stroke-width:0.8;"/>
      </defs>
      <g>
       <use style="stroke:#000000;stroke-width:0.8;" x="113.6896" xlink:href="#m5140e7c8f6" y="252.776"/>
      </g>
     </g>
     <g id="text_1">
      <!-- Joint $V_{50Gy}$ -->
      <g transform="translate(83.1496 268.896)scale(0.12 -0.12)">
       <defs>
        <path d="M 628 4666 
L 1259 4666 
L 1259 325 
Q 1259 -519 939 -900 
Q 619 -1281 -91 -1281 
L -331 -1281 
L -331 -750 
L -134 -750 
Q 284 -750 456 -515 
Q 628 -281 628 325 
L 628 4666 
z
" id="DejaVuSans-4a" transform="scale(0.015625)"/>
        <path d="M 1959 3097 
Q 1497 3097 1228 2736 
Q 959 2375 959 1747 
Q 959 1119 1226 758 
Q 1494 397 1959 397 
Q 2419 397 2687 759 
Q 2956 1122 2956 1747 
Q 2956 2369 2687 2733 
Q 2419 3097 1959 3097 
z
M 1959 3584 
Q 2709 3584 3137 3096 
Q 3566 2609 3566 1747 
Q 3566 888 3137 398 
Q 2709 -91 1959 -91 
Q 1206 -91 779 398 
Q 353 888 353 1747 
Q 353 2609 779 3096 
Q 1206 3584 1959 3584 
z
" id="DejaVuSans-6f" transform="scale(0.015625)"/>
        <path d="M 603 3500 
L 1178 3500 
L 1178 0 
L 603 0 
L 603 3500 
z
M 603 4863 
L 1178 4863 
L 1178 4134 
L 603 4134 
L 603 4863 
z
" id="DejaVuSans-69" transform="scale(0.015625)"/>
        <path d="M 3513 2113 
L 3513 0 
L 2938 0 
L 2938 2094 
Q 2938 2591 2744 2837 
Q 2550 3084 2163 3084 
Q 1697 3084 1428 2787 
Q 1159 2491 1159 1978 
L 1159 0 
L 581 0 
L 581 3500 
L 1159 3500 
L 1159 2956 
Q 1366 3272 1645 3428 
Q 1925 3584 2291 3584 
Q 2894 3584 3203 3211 
Q 3513 2838 3513 2113 
z
" id="DejaVuSans-6e" transform="scale(0.015625)"/>
        <path d="M 1172 4494 
L 1172 3500 
L 2356 3500 
L 2356 3053 
L 1172 3053 
L 1172 1153 
Q 1172 725 1289 603 
Q 1406 481 1766 481 
L 2356 481 
L 2356 0 
L 1766 0 
Q 1100 0 847 248 
Q 594 497 594 1153 
L 594 3053 
L 172 3053 
L 172 3500 
L 594 3500 
L 594 4494 
L 1172 4494 
z
" id="DejaVuSans-74" transform="scale(0.015625)"/>
        <path id="DejaVuSans-20" transform="scale(0.015625)"/>
        <path d="M 1319 0 
L 500 4666 
L 1119 4666 
L 1797 653 
L 4063 4666 
L 4750 4666 
L 2053 0 
L 1319 0 
z
" id="DejaVuSans-Oblique-56" transform="scale(0.015625)"/>
        <path d="M 691 4666 
L 3169 4666 
L 3169 4134 
L 1269 4134 
L 1269 2991 
Q 1406 3038 1543 3061 
Q 1681 3084 1819 3084 
Q 2600 3084 3056 2656 
Q 3513 2228 3513 1497 
Q 3513 744 3044 326 
Q 2575 -91 1722 -91 
Q 1428 -91 1123 -41 
Q 819 9 494 109 
L 494 744 
Q 775 591 1075 516 
Q 1375 441 1709 441 
Q 2250 441 2565 725 
Q 2881 1009 2881 1497 
Q 2881 1984 2565 2268 
Q 2250 2553 1709 2553 
Q 1456 2553 1204 2497 
Q 953 2441 691 2322 
L 691 4666 
z
" id="DejaVuSans-35" transform="scale(0.015625)"/>
        <path d="M 2034 4250 
Q 1547 4250 1301 3770 
Q 1056 3291 1056 2328 
Q 1056 1369 1301 889 
Q 1547 409 2034 409 
Q 2525 409 2770 889 
Q 3016 1369 3016 2328 
Q 3016 3291 2770 3770 
Q 2525 4250 2034 4250 
z
M 2034 4750 
Q 2819 4750 3233 4129 
Q 3647 3509 3647 2328 
Q 3647 1150 3233 529 
Q 2819 -91 2034 -91 
Q 1250 -91 836 529 
Q 422 1150 422 2328 
Q 422 3509 836 4129 
Q 1250 4750 2034 4750 
z
" id="DejaVuSans-30" transform="scale(0.015625)"/>
        <path d="M 3494 697 
L 3738 1919 
L 2700 1919 
L 2797 2438 
L 4453 2438 
L 4050 384 
Q 3634 156 3143 32 
Q 2653 -91 2156 -91 
Q 1278 -91 783 396 
Q 288 884 288 1753 
Q 288 2475 589 3126 
Q 891 3778 1422 4213 
Q 1756 4484 2153 4617 
Q 2550 4750 3034 4750 
Q 3472 4750 3873 4639 
Q 4275 4528 4641 4306 
L 4513 3634 
Q 4231 3928 3853 4083 
Q 3475 4238 3047 4238 
Q 2550 4238 2172 4048 
Q 1794 3859 1497 3463 
Q 1244 3125 1098 2667 
Q 953 2209 953 1734 
Q 953 1081 1287 751 
Q 1622 422 2284 422 
Q 2616 422 2925 492 
Q 3234 563 3494 697 
z
" id="DejaVuSans-Oblique-47" transform="scale(0.015625)"/>
        <path d="M 1588 -325 
Q 1188 -997 936 -1164 
Q 684 -1331 294 -1331 
L -159 -1331 
L -63 -850 
L 269 -850 
Q 509 -850 678 -719 
Q 847 -588 1056 -206 
L 1234 128 
L 459 3500 
L 1069 3500 
L 1650 819 
L 3256 3500 
L 3859 3500 
L 1588 -325 
z
" id="DejaVuSans-Oblique-79" transform="scale(0.015625)"/>
       </defs>
       <use transform="translate(0 0.015625)" xlink:href="#DejaVuSans-4a"/>
       <use transform="translate(29.492188 0.015625)" xlink:href="#DejaVuSans-6f"/>
       <use transform="translate(90.673828 0.015625)" xlink:href="#DejaVuSans-69"/>
       <use transform="translate(118.457031 0.015625)" xlink:href="#DejaVuSans-6e"/>
       <use transform="translate(181.835938 0.015625)" xlink:href="#DejaVuSans-74"/>
       <use transform="translate(221.044922 0.015625)" xlink:href="#DejaVuSans-20"/>
       <use transform="translate(252.832031 0.015625)" xlink:href="#DejaVuSans-Oblique-56"/>
       <use transform="translate(321.240234 -16.390625)scale(0.7)" xlink:href="#DejaVuSans-35"/>
       <use transform="translate(365.776367 -16.390625)scale(0.7)" xlink:href="#DejaVuSans-30"/>
       <use transform="translate(410.3125 -16.390625)scale(0.7)" xlink:href="#DejaVuSans-Oblique-47"/>
       <use transform="translate(464.555664 -16.390625)scale(0.7)" xlink:href="#DejaVuSans-Oblique-79"/>
      </g>
     </g>
    </g>
    <g id="xtick_2">
     <g id="line2d_2">
      <g>
       <use style="stroke:#000000;stroke-width:0.8;" x="237.2408" xlink:href="#m5140e7c8f6" y="252.776"/>
      </g>
     </g>
     <g id="text_2">
      <!-- Testes $V_{3Gy}$ -->
      <g transform="translate(202.9808 268.536)scale(0.12 -0.12)">
       <defs>
        <path d="M -19 4666 
L 3928 4666 
L 3928 4134 
L 2272 4134 
L 2272 0 
L 1638 0 
L 1638 4134 
L -19 4134 
L -19 4666 
z
" id="DejaVuSans-54" transform="scale(0.015625)"/>
        <path d="M 3597 1894 
L 3597 1613 
L 953 1613 
Q 991 1019 1311 708 
Q 1631 397 2203 397 
Q 2534 397 2845 478 
Q 3156 559 3463 722 
L 3463 178 
Q 3153 47 2828 -22 
Q 2503 -91 2169 -91 
Q 1331 -91 842 396 
Q 353 884 353 1716 
Q 353 2575 817 3079 
Q 1281 3584 2069 3584 
Q 2775 3584 3186 3129 
Q 3597 2675 3597 1894 
z
M 3022 2063 
Q 3016 2534 2758 2815 
Q 2500 3097 2075 3097 
Q 1594 3097 1305 2825 
Q 1016 2553 972 2059 
L 3022 2063 
z
" id="DejaVuSans-65" transform="scale(0.015625)"/>
        <path d="M 2834 3397 
L 2834 2853 
Q 2591 2978 2328 3040 
Q 2066 3103 1784 3103 
Q 1356 3103 1142 2972 
Q 928 2841 928 2578 
Q 928 2378 1081 2264 
Q 1234 2150 1697 2047 
L 1894 2003 
Q 2506 1872 2764 1633 
Q 3022 1394 3022 966 
Q 3022 478 2636 193 
Q 2250 -91 1575 -91 
Q 1294 -91 989 -36 
Q 684 19 347 128 
L 347 722 
Q 666 556 975 473 
Q 1284 391 1588 391 
Q 1994 391 2212 530 
Q 2431 669 2431 922 
Q 2431 1156 2273 1281 
Q 2116 1406 1581 1522 
L 1381 1569 
Q 847 1681 609 1914 
Q 372 2147 372 2553 
Q 372 3047 722 3315 
Q 1072 3584 1716 3584 
Q 2034 3584 2315 3537 
Q 2597 3491 2834 3397 
z
" id="DejaVuSans-73" transform="scale(0.015625)"/>
        <path d="M 2597 2516 
Q 3050 2419 3304 2112 
Q 3559 1806 3559 1356 
Q 3559 666 3084 287 
Q 2609 -91 1734 -91 
Q 1441 -91 1130 -33 
Q 819 25 488 141 
L 488 750 
Q 750 597 1062 519 
Q 1375 441 1716 441 
Q 2309 441 2620 675 
Q 2931 909 2931 1356 
Q 2931 1769 2642 2001 
Q 2353 2234 1838 2234 
L 1294 2234 
L 1294 2753 
L 1863 2753 
Q 2328 2753 2575 2939 
Q 2822 3125 2822 3475 
Q 2822 3834 2567 4026 
Q 2313 4219 1838 4219 
Q 1578 4219 1281 4162 
Q 984 4106 628 3988 
L 628 4550 
Q 988 4650 1302 4700 
Q 1616 4750 1894 4750 
Q 2613 4750 3031 4423 
Q 3450 4097 3450 3541 
Q 3450 3153 3228 2886 
Q 3006 2619 2597 2516 
z
" id="DejaVuSans-33" transform="scale(0.015625)"/>
       </defs>
       <use transform="translate(0 0.09375)" xlink:href="#DejaVuSans-54"/>
       <use transform="translate(61.083984 0.09375)" xlink:href="#DejaVuSans-65"/>
       <use transform="translate(122.607422 0.09375)" xlink:href="#DejaVuSans-73"/>
       <use transform="translate(174.707031 0.09375)" xlink:href="#DejaVuSans-74"/>
       <use transform="translate(213.916016 0.09375)" xlink:href="#DejaVuSans-65"/>
       <use transform="translate(275.439453 0.09375)" xlink:href="#DejaVuSans-73"/>
       <use transform="translate(327.539062 0.09375)" xlink:href="#DejaVuSans-20"/>
       <use transform="translate(359.326172 0.09375)" xlink:href="#DejaVuSans-Oblique-56"/>
       <use transform="translate(427.734375 -16.3125)scale(0.7)" xlink:href="#DejaVuSans-33"/>
       <use transform="translate(472.270508 -16.3125)scale(0.7)" xlink:href="#DejaVuSans-Oblique-47"/>
       <use transform="translate(526.513672 -16.3125)scale(0.7)" xlink:href="#DejaVuSans-Oblique-79"/>
      </g>
     </g>
    </g>
    <g id="xtick_3">
     <g id="line2d_3">
      <g>
       <use style="stroke:#000000;stroke-width:0.8;" x="360.792" xlink:href="#m5140e7c8f6" y="252.776"/>
      </g>
     </g>
     <g id="text_3">
      <!-- Genitalia $V_{30Gy}$ -->
      <g transform="translate(316.632 268.896)scale(0.12 -0.12)">
       <defs>
        <path d="M 3809 666 
L 3809 1919 
L 2778 1919 
L 2778 2438 
L 4434 2438 
L 4434 434 
Q 4069 175 3628 42 
Q 3188 -91 2688 -91 
Q 1594 -91 976 548 
Q 359 1188 359 2328 
Q 359 3472 976 4111 
Q 1594 4750 2688 4750 
Q 3144 4750 3555 4637 
Q 3966 4525 4313 4306 
L 4313 3634 
Q 3963 3931 3569 4081 
Q 3175 4231 2741 4231 
Q 1884 4231 1454 3753 
Q 1025 3275 1025 2328 
Q 1025 1384 1454 906 
Q 1884 428 2741 428 
Q 3075 428 3337 486 
Q 3600 544 3809 666 
z
" id="DejaVuSans-47" transform="scale(0.015625)"/>
        <path d="M 2194 1759 
Q 1497 1759 1228 1600 
Q 959 1441 959 1056 
Q 959 750 1161 570 
Q 1363 391 1709 391 
Q 2188 391 2477 730 
Q 2766 1069 2766 1631 
L 2766 1759 
L 2194 1759 
z
M 3341 1997 
L 3341 0 
L 2766 0 
L 2766 531 
Q 2569 213 2275 61 
Q 1981 -91 1556 -91 
Q 1019 -91 701 211 
Q 384 513 384 1019 
Q 384 1609 779 1909 
Q 1175 2209 1959 2209 
L 2766 2209 
L 2766 2266 
Q 2766 2663 2505 2880 
Q 2244 3097 1772 3097 
Q 1472 3097 1187 3025 
Q 903 2953 641 2809 
L 641 3341 
Q 956 3463 1253 3523 
Q 1550 3584 1831 3584 
Q 2591 3584 2966 3190 
Q 3341 2797 3341 1997 
z
" id="DejaVuSans-61" transform="scale(0.015625)"/>
        <path d="M 603 4863 
L 1178 4863 
L 1178 0 
L 603 0 
L 603 4863 
z
" id="DejaVuSans-6c" transform="scale(0.015625)"/>
       </defs>
       <use transform="translate(0 0.015625)" xlink:href="#DejaVuSans-47"/>
       <use transform="translate(77.490234 0.015625)" xlink:href="#DejaVuSans-65"/>
       <use transform="translate(139.013672 0.015625)" xlink:href="#DejaVuSans-6e"/>
       <use transform="translate(202.392578 0.015625)" xlink:href="#DejaVuSans-69"/>
       <use transform="translate(230.175781 0.015625)" xlink:href="#DejaVuSans-74"/>
       <use transform="translate(269.384766 0.015625)" xlink:href="#DejaVuSans-61"/>
       <use transform="translate(330.664062 0.015625)" xlink:href="#DejaVuSans-6c"/>
       <use transform="translate(358.447266 0.015625)" xlink:href="#DejaVuSans-69"/>
       <use transform="translate(386.230469 0.015625)" xlink:href="#DejaVuSans-61"/>
       <use transform="translate(447.509766 0.015625)" xlink:href="#DejaVuSans-20"/>
       <use transform="translate(479.296875 0.015625)" xlink:href="#DejaVuSans-Oblique-56"/>
       <use transform="translate(547.705078 -16.390625)scale(0.7)" xlink:href="#DejaVuSans-33"/>
       <use transform="translate(592.241211 -16.390625)scale(0.7)" xlink:href="#DejaVuSans-30"/>
       <use transform="translate(636.777344 -16.390625)scale(0.7)" xlink:href="#DejaVuSans-Oblique-47"/>
       <use transform="translate(691.020508 -16.390625)scale(0.7)" xlink:href="#DejaVuSans-Oblique-79"/>
      </g>
     </g>
    </g>
    <g id="xtick_4">
     <g id="line2d_4">
      <g>
       <use style="stroke:#000000;stroke-width:0.8;" x="484.3432" xlink:href="#m5140e7c8f6" y="252.776"/>
      </g>
     </g>
     <g id="text_4">
      <!-- Anus $V_{30Gy}$ -->
      <g transform="translate(452.2432 268.536)scale(0.12 -0.12)">
       <defs>
        <path d="M 2188 4044 
L 1331 1722 
L 3047 1722 
L 2188 4044 
z
M 1831 4666 
L 2547 4666 
L 4325 0 
L 3669 0 
L 3244 1197 
L 1141 1197 
L 716 0 
L 50 0 
L 1831 4666 
z
" id="DejaVuSans-41" transform="scale(0.015625)"/>
        <path d="M 544 1381 
L 544 3500 
L 1119 3500 
L 1119 1403 
Q 1119 906 1312 657 
Q 1506 409 1894 409 
Q 2359 409 2629 706 
Q 2900 1003 2900 1516 
L 2900 3500 
L 3475 3500 
L 3475 0 
L 2900 0 
L 2900 538 
Q 2691 219 2414 64 
Q 2138 -91 1772 -91 
Q 1169 -91 856 284 
Q 544 659 544 1381 
z
M 1991 3584 
L 1991 3584 
z
" id="DejaVuSans-75" transform="scale(0.015625)"/>
       </defs>
       <use transform="translate(0 0.09375)" xlink:href="#DejaVuSans-41"/>
       <use transform="translate(68.408203 0.09375)" xlink:href="#DejaVuSans-6e"/>
       <use transform="translate(131.787109 0.09375)" xlink:href="#DejaVuSans-75"/>
       <use transform="translate(195.166016 0.09375)" xlink:href="#DejaVuSans-73"/>
       <use transform="translate(247.265625 0.09375)" xlink:href="#DejaVuSans-20"/>
       <use transform="translate(279.052734 0.09375)" xlink:href="#DejaVuSans-Oblique-56"/>
       <use transform="translate(347.460938 -16.3125)scale(0.7)" xlink:href="#DejaVuSans-33"/>
       <use transform="translate(391.99707 -16.3125)scale(0.7)" xlink:href="#DejaVuSans-30"/>
       <use transform="translate(436.533203 -16.3125)scale(0.7)" xlink:href="#DejaVuSans-Oblique-47"/>
       <use transform="translate(490.776367 -16.3125)scale(0.7)" xlink:href="#DejaVuSans-Oblique-79"/>
      </g>
     </g>
    </g>
    <g id="xtick_5">
     <g id="line2d_5">
      <g>
       <use style="stroke:#000000;stroke-width:0.8;" x="607.8944" xlink:href="#m5140e7c8f6" y="252.776"/>
      </g>
     </g>
     <g id="text_5">
      <!-- Femoral head $D_{mean}$ -->
      <g transform="translate(547.8944 268.894125)scale(0.12 -0.12)">
       <defs>
        <path d="M 628 4666 
L 3309 4666 
L 3309 4134 
L 1259 4134 
L 1259 2759 
L 3109 2759 
L 3109 2228 
L 1259 2228 
L 1259 0 
L 628 0 
L 628 4666 
z
" id="DejaVuSans-46" transform="scale(0.015625)"/>
        <path d="M 3328 2828 
Q 3544 3216 3844 3400 
Q 4144 3584 4550 3584 
Q 5097 3584 5394 3201 
Q 5691 2819 5691 2113 
L 5691 0 
L 5113 0 
L 5113 2094 
Q 5113 2597 4934 2840 
Q 4756 3084 4391 3084 
Q 3944 3084 3684 2787 
Q 3425 2491 3425 1978 
L 3425 0 
L 2847 0 
L 2847 2094 
Q 2847 2600 2669 2842 
Q 2491 3084 2119 3084 
Q 1678 3084 1418 2786 
Q 1159 2488 1159 1978 
L 1159 0 
L 581 0 
L 581 3500 
L 1159 3500 
L 1159 2956 
Q 1356 3278 1631 3431 
Q 1906 3584 2284 3584 
Q 2666 3584 2933 3390 
Q 3200 3197 3328 2828 
z
" id="DejaVuSans-6d" transform="scale(0.015625)"/>
        <path d="M 2631 2963 
Q 2534 3019 2420 3045 
Q 2306 3072 2169 3072 
Q 1681 3072 1420 2755 
Q 1159 2438 1159 1844 
L 1159 0 
L 581 0 
L 581 3500 
L 1159 3500 
L 1159 2956 
Q 1341 3275 1631 3429 
Q 1922 3584 2338 3584 
Q 2397 3584 2469 3576 
Q 2541 3569 2628 3553 
L 2631 2963 
z
" id="DejaVuSans-72" transform="scale(0.015625)"/>
        <path d="M 3513 2113 
L 3513 0 
L 2938 0 
L 2938 2094 
Q 2938 2591 2744 2837 
Q 2550 3084 2163 3084 
Q 1697 3084 1428 2787 
Q 1159 2491 1159 1978 
L 1159 0 
L 581 0 
L 581 4863 
L 1159 4863 
L 1159 2956 
Q 1366 3272 1645 3428 
Q 1925 3584 2291 3584 
Q 2894 3584 3203 3211 
Q 3513 2838 3513 2113 
z
" id="DejaVuSans-68" transform="scale(0.015625)"/>
        <path d="M 2906 2969 
L 2906 4863 
L 3481 4863 
L 3481 0 
L 2906 0 
L 2906 525 
Q 2725 213 2448 61 
Q 2172 -91 1784 -91 
Q 1150 -91 751 415 
Q 353 922 353 1747 
Q 353 2572 751 3078 
Q 1150 3584 1784 3584 
Q 2172 3584 2448 3432 
Q 2725 3281 2906 2969 
z
M 947 1747 
Q 947 1113 1208 752 
Q 1469 391 1925 391 
Q 2381 391 2643 752 
Q 2906 1113 2906 1747 
Q 2906 2381 2643 2742 
Q 2381 3103 1925 3103 
Q 1469 3103 1208 2742 
Q 947 2381 947 1747 
z
" id="DejaVuSans-64" transform="scale(0.015625)"/>
        <path d="M 1081 4666 
L 2438 4666 
Q 3519 4666 4070 4208 
Q 4622 3750 4622 2847 
Q 4622 2250 4412 1698 
Q 4203 1147 3834 769 
Q 3463 381 2891 190 
Q 2319 0 1538 0 
L 172 0 
L 1081 4666 
z
M 1613 4147 
L 909 519 
L 1734 519 
Q 2794 519 3375 1128 
Q 3956 1738 3956 2847 
Q 3956 3519 3581 3833 
Q 3206 4147 2406 4147 
L 1613 4147 
z
" id="DejaVuSans-Oblique-44" transform="scale(0.015625)"/>
        <path d="M 5747 2113 
L 5338 0 
L 4763 0 
L 5166 2094 
Q 5191 2228 5203 2325 
Q 5216 2422 5216 2491 
Q 5216 2772 5059 2928 
Q 4903 3084 4622 3084 
Q 4203 3084 3875 2770 
Q 3547 2456 3450 1953 
L 3066 0 
L 2491 0 
L 2900 2094 
Q 2925 2209 2937 2307 
Q 2950 2406 2950 2484 
Q 2950 2769 2794 2926 
Q 2638 3084 2363 3084 
Q 1938 3084 1609 2770 
Q 1281 2456 1184 1953 
L 800 0 
L 225 0 
L 909 3500 
L 1484 3500 
L 1375 2956 
Q 1609 3263 1923 3423 
Q 2238 3584 2597 3584 
Q 2978 3584 3223 3384 
Q 3469 3184 3519 2828 
Q 3781 3197 4126 3390 
Q 4472 3584 4856 3584 
Q 5306 3584 5551 3325 
Q 5797 3066 5797 2591 
Q 5797 2488 5784 2364 
Q 5772 2241 5747 2113 
z
" id="DejaVuSans-Oblique-6d" transform="scale(0.015625)"/>
        <path d="M 3078 2063 
Q 3088 2113 3092 2166 
Q 3097 2219 3097 2272 
Q 3097 2653 2873 2875 
Q 2650 3097 2266 3097 
Q 1838 3097 1509 2826 
Q 1181 2556 1013 2059 
L 3078 2063 
z
M 3578 1613 
L 903 1613 
Q 884 1494 878 1425 
Q 872 1356 872 1306 
Q 872 872 1139 634 
Q 1406 397 1894 397 
Q 2269 397 2603 481 
Q 2938 566 3225 728 
L 3116 159 
Q 2806 34 2476 -28 
Q 2147 -91 1806 -91 
Q 1078 -91 686 257 
Q 294 606 294 1247 
Q 294 1794 489 2264 
Q 684 2734 1063 3103 
Q 1306 3334 1642 3459 
Q 1978 3584 2356 3584 
Q 2950 3584 3301 3228 
Q 3653 2872 3653 2272 
Q 3653 2128 3634 1964 
Q 3616 1800 3578 1613 
z
" id="DejaVuSans-Oblique-65" transform="scale(0.015625)"/>
        <path d="M 3438 1997 
L 3047 0 
L 2472 0 
L 2578 531 
Q 2325 219 2001 64 
Q 1678 -91 1281 -91 
Q 834 -91 548 182 
Q 263 456 263 884 
Q 263 1497 752 1853 
Q 1241 2209 2100 2209 
L 2900 2209 
L 2931 2363 
Q 2938 2388 2941 2417 
Q 2944 2447 2944 2509 
Q 2944 2788 2717 2942 
Q 2491 3097 2081 3097 
Q 1800 3097 1504 3025 
Q 1209 2953 897 2809 
L 997 3341 
Q 1322 3463 1633 3523 
Q 1944 3584 2234 3584 
Q 2853 3584 3176 3315 
Q 3500 3047 3500 2534 
Q 3500 2431 3484 2292 
Q 3469 2153 3438 1997 
z
M 2816 1759 
L 2241 1759 
Q 1534 1759 1195 1570 
Q 856 1381 856 984 
Q 856 709 1029 553 
Q 1203 397 1509 397 
Q 1978 397 2328 733 
Q 2678 1069 2791 1631 
L 2816 1759 
z
" id="DejaVuSans-Oblique-61" transform="scale(0.015625)"/>
        <path d="M 3566 2113 
L 3156 0 
L 2578 0 
L 2988 2091 
Q 3016 2238 3031 2350 
Q 3047 2463 3047 2528 
Q 3047 2791 2881 2937 
Q 2716 3084 2419 3084 
Q 1956 3084 1622 2776 
Q 1288 2469 1184 1941 
L 800 0 
L 225 0 
L 903 3500 
L 1478 3500 
L 1363 2950 
Q 1603 3253 1940 3418 
Q 2278 3584 2650 3584 
Q 3113 3584 3367 3334 
Q 3622 3084 3622 2631 
Q 3622 2519 3608 2391 
Q 3594 2263 3566 2113 
z
" id="DejaVuSans-Oblique-6e" transform="scale(0.015625)"/>
       </defs>
       <use transform="translate(0 0.015625)" xlink:href="#DejaVuSans-46"/>
       <use transform="translate(57.519531 0.015625)" xlink:href="#DejaVuSans-65"/>
       <use transform="translate(119.042969 0.015625)" xlink:href="#DejaVuSans-6d"/>
       <use transform="translate(216.455078 0.015625)" xlink:href="#DejaVuSans-6f"/>
       <use transform="translate(277.636719 0.015625)" xlink:href="#DejaVuSans-72"/>
       <use transform="translate(318.75 0.015625)" xlink:href="#DejaVuSans-61"/>
       <use transform="translate(380.029297 0.015625)" xlink:href="#DejaVuSans-6c"/>
       <use transform="translate(407.8125 0.015625)" xlink:href="#DejaVuSans-20"/>
       <use transform="translate(439.599609 0.015625)" xlink:href="#DejaVuSans-68"/>
       <use transform="translate(502.978516 0.015625)" xlink:href="#DejaVuSans-65"/>
       <use transform="translate(564.501953 0.015625)" xlink:href="#DejaVuSans-61"/>
       <use transform="translate(625.78125 0.015625)" xlink:href="#DejaVuSans-64"/>
       <use transform="translate(689.257812 0.015625)" xlink:href="#DejaVuSans-20"/>
       <use transform="translate(721.044922 0.015625)" xlink:href="#DejaVuSans-Oblique-44"/>
       <use transform="translate(798.046875 -16.390625)scale(0.7)" xlink:href="#DejaVuSans-Oblique-6d"/>
       <use transform="translate(866.235352 -16.390625)scale(0.7)" xlink:href="#DejaVuSans-Oblique-65"/>
       <use transform="translate(909.301758 -16.390625)scale(0.7)" xlink:href="#DejaVuSans-Oblique-61"/>
       <use transform="translate(952.197266 -16.390625)scale(0.7)" xlink:href="#DejaVuSans-Oblique-6e"/>
      </g>
     </g>
    </g>
   </g>
   <g id="matplotlib.axis_2">
    <g id="ytick_1">
     <g id="line2d_6">
      <path clip-path="url(#p9bb8f76b4e)" d="M 51.914 241.777091 
L 669.67 241.777091 
" style="fill:none;stroke:#b0b0b0;stroke-dasharray:2.96,1.28;stroke-dashoffset:0;stroke-width:0.8;"/>
     </g>
     <g id="line2d_7">
      <defs>
       <path d="M 0 0 
L -3.5 0 
" id="me313489f38" style="stroke:#000000;stroke-width:0.8;"/>
      </defs>
      <g>
       <use style="stroke:#000000;stroke-width:0.8;" x="51.914" xlink:href="#me313489f38" y="241.777091"/>
      </g>
     </g>
     <g id="text_6">
      <!-- 0 -->
      <g transform="translate(38.5515 245.57631)scale(0.1 -0.1)">
       <use xlink:href="#DejaVuSans-30"/>
      </g>
     </g>
    </g>
    <g id="ytick_2">
     <g id="line2d_8">
      <path clip-path="url(#p9bb8f76b4e)" d="M 51.914 214.053813 
L 669.67 214.053813 
" style="fill:none;stroke:#b0b0b0;stroke-dasharray:2.96,1.28;stroke-dashoffset:0;stroke-width:0.8;"/>
     </g>
     <g id="line2d_9">
      <g>
       <use style="stroke:#000000;stroke-width:0.8;" x="51.914" xlink:href="#me313489f38" y="214.053813"/>
      </g>
     </g>
     <g id="text_7">
      <!-- 10 -->
      <g transform="translate(32.189 217.853032)scale(0.1 -0.1)">
       <defs>
        <path d="M 794 531 
L 1825 531 
L 1825 4091 
L 703 3866 
L 703 4441 
L 1819 4666 
L 2450 4666 
L 2450 531 
L 3481 531 
L 3481 0 
L 794 0 
L 794 531 
z
" id="DejaVuSans-31" transform="scale(0.015625)"/>
       </defs>
       <use xlink:href="#DejaVuSans-31"/>
       <use x="63.623047" xlink:href="#DejaVuSans-30"/>
      </g>
     </g>
    </g>
    <g id="ytick_3">
     <g id="line2d_10">
      <path clip-path="url(#p9bb8f76b4e)" d="M 51.914 186.330535 
L 669.67 186.330535 
" style="fill:none;stroke:#b0b0b0;stroke-dasharray:2.96,1.28;stroke-dashoffset:0;stroke-width:0.8;"/>
     </g>
     <g id="line2d_11">
      <g>
       <use style="stroke:#000000;stroke-width:0.8;" x="51.914" xlink:href="#me313489f38" y="186.330535"/>
      </g>
     </g>
     <g id="text_8">
      <!-- 20 -->
      <g transform="translate(32.189 190.129754)scale(0.1 -0.1)">
       <defs>
        <path d="M 1228 531 
L 3431 531 
L 3431 0 
L 469 0 
L 469 531 
Q 828 903 1448 1529 
Q 2069 2156 2228 2338 
Q 2531 2678 2651 2914 
Q 2772 3150 2772 3378 
Q 2772 3750 2511 3984 
Q 2250 4219 1831 4219 
Q 1534 4219 1204 4116 
Q 875 4013 500 3803 
L 500 4441 
Q 881 4594 1212 4672 
Q 1544 4750 1819 4750 
Q 2544 4750 2975 4387 
Q 3406 4025 3406 3419 
Q 3406 3131 3298 2873 
Q 3191 2616 2906 2266 
Q 2828 2175 2409 1742 
Q 1991 1309 1228 531 
z
" id="DejaVuSans-32" transform="scale(0.015625)"/>
       </defs>
       <use xlink:href="#DejaVuSans-32"/>
       <use x="63.623047" xlink:href="#DejaVuSans-30"/>
      </g>
     </g>
    </g>
    <g id="ytick_4">
     <g id="line2d_12">
      <path clip-path="url(#p9bb8f76b4e)" d="M 51.914 158.607258 
L 669.67 158.607258 
" style="fill:none;stroke:#b0b0b0;stroke-dasharray:2.96,1.28;stroke-dashoffset:0;stroke-width:0.8;"/>
     </g>
     <g id="line2d_13">
      <g>
       <use style="stroke:#000000;stroke-width:0.8;" x="51.914" xlink:href="#me313489f38" y="158.607258"/>
      </g>
     </g>
     <g id="text_9">
      <!-- 30 -->
      <g transform="translate(32.189 162.406477)scale(0.1 -0.1)">
       <use xlink:href="#DejaVuSans-33"/>
       <use x="63.623047" xlink:href="#DejaVuSans-30"/>
      </g>
     </g>
    </g>
    <g id="ytick_5">
     <g id="line2d_14">
      <path clip-path="url(#p9bb8f76b4e)" d="M 51.914 130.88398 
L 669.67 130.88398 
" style="fill:none;stroke:#b0b0b0;stroke-dasharray:2.96,1.28;stroke-dashoffset:0;stroke-width:0.8;"/>
     </g>
     <g id="line2d_15">
      <g>
       <use style="stroke:#000000;stroke-width:0.8;" x="51.914" xlink:href="#me313489f38" y="130.88398"/>
      </g>
     </g>
     <g id="text_10">
      <!-- 40 -->
      <g transform="translate(32.189 134.683199)scale(0.1 -0.1)">
       <defs>
        <path d="M 2419 4116 
L 825 1625 
L 2419 1625 
L 2419 4116 
z
M 2253 4666 
L 3047 4666 
L 3047 1625 
L 3713 1625 
L 3713 1100 
L 3047 1100 
L 3047 0 
L 2419 0 
L 2419 1100 
L 313 1100 
L 313 1709 
L 2253 4666 
z
" id="DejaVuSans-34" transform="scale(0.015625)"/>
       </defs>
       <use xlink:href="#DejaVuSans-34"/>
       <use x="63.623047" xlink:href="#DejaVuSans-30"/>
      </g>
     </g>
    </g>
    <g id="ytick_6">
     <g id="line2d_16">
      <path clip-path="url(#p9bb8f76b4e)" d="M 51.914 103.160702 
L 669.67 103.160702 
" style="fill:none;stroke:#b0b0b0;stroke-dasharray:2.96,1.28;stroke-dashoffset:0;stroke-width:0.8;"/>
     </g>
     <g id="line2d_17">
      <g>
       <use style="stroke:#000000;stroke-width:0.8;" x="51.914" xlink:href="#me313489f38" y="103.160702"/>
      </g>
     </g>
     <g id="text_11">
      <!-- 50 -->
      <g transform="translate(32.189 106.959921)scale(0.1 -0.1)">
       <use xlink:href="#DejaVuSans-35"/>
       <use x="63.623047" xlink:href="#DejaVuSans-30"/>
      </g>
     </g>
    </g>
    <g id="ytick_7">
     <g id="line2d_18">
      <path clip-path="url(#p9bb8f76b4e)" d="M 51.914 75.437425 
L 669.67 75.437425 
" style="fill:none;stroke:#b0b0b0;stroke-dasharray:2.96,1.28;stroke-dashoffset:0;stroke-width:0.8;"/>
     </g>
     <g id="line2d_19">
      <g>
       <use style="stroke:#000000;stroke-width:0.8;" x="51.914" xlink:href="#me313489f38" y="75.437425"/>
      </g>
     </g>
     <g id="text_12">
      <!-- 60 -->
      <g transform="translate(32.189 79.236643)scale(0.1 -0.1)">
       <defs>
        <path d="M 2113 2584 
Q 1688 2584 1439 2293 
Q 1191 2003 1191 1497 
Q 1191 994 1439 701 
Q 1688 409 2113 409 
Q 2538 409 2786 701 
Q 3034 994 3034 1497 
Q 3034 2003 2786 2293 
Q 2538 2584 2113 2584 
z
M 3366 4563 
L 3366 3988 
Q 3128 4100 2886 4159 
Q 2644 4219 2406 4219 
Q 1781 4219 1451 3797 
Q 1122 3375 1075 2522 
Q 1259 2794 1537 2939 
Q 1816 3084 2150 3084 
Q 2853 3084 3261 2657 
Q 3669 2231 3669 1497 
Q 3669 778 3244 343 
Q 2819 -91 2113 -91 
Q 1303 -91 875 529 
Q 447 1150 447 2328 
Q 447 3434 972 4092 
Q 1497 4750 2381 4750 
Q 2619 4750 2861 4703 
Q 3103 4656 3366 4563 
z
" id="DejaVuSans-36" transform="scale(0.015625)"/>
       </defs>
       <use xlink:href="#DejaVuSans-36"/>
       <use x="63.623047" xlink:href="#DejaVuSans-30"/>
      </g>
     </g>
    </g>
    <g id="ytick_8">
     <g id="line2d_20">
      <path clip-path="url(#p9bb8f76b4e)" d="M 51.914 47.714147 
L 669.67 47.714147 
" style="fill:none;stroke:#b0b0b0;stroke-dasharray:2.96,1.28;stroke-dashoffset:0;stroke-width:0.8;"/>
     </g>
     <g id="line2d_21">
      <g>
       <use style="stroke:#000000;stroke-width:0.8;" x="51.914" xlink:href="#me313489f38" y="47.714147"/>
      </g>
     </g>
     <g id="text_13">
      <!-- 70 -->
      <g transform="translate(32.189 51.513366)scale(0.1 -0.1)">
       <defs>
        <path d="M 525 4666 
L 3525 4666 
L 3525 4397 
L 1831 0 
L 1172 0 
L 2766 4134 
L 525 4134 
L 525 4666 
z
" id="DejaVuSans-37" transform="scale(0.015625)"/>
       </defs>
       <use xlink:href="#DejaVuSans-37"/>
       <use x="63.623047" xlink:href="#DejaVuSans-30"/>
      </g>
     </g>
    </g>
    <g id="ytick_9">
     <g id="line2d_22">
      <path clip-path="url(#p9bb8f76b4e)" d="M 51.914 19.990869 
L 669.67 19.990869 
" style="fill:none;stroke:#b0b0b0;stroke-dasharray:2.96,1.28;stroke-dashoffset:0;stroke-width:0.8;"/>
     </g>
     <g id="line2d_23">
      <g>
       <use style="stroke:#000000;stroke-width:0.8;" x="51.914" xlink:href="#me313489f38" y="19.990869"/>
      </g>
     </g>
     <g id="text_14">
      <!-- 80 -->
      <g transform="translate(32.189 23.790088)scale(0.1 -0.1)">
       <defs>
        <path d="M 2034 2216 
Q 1584 2216 1326 1975 
Q 1069 1734 1069 1313 
Q 1069 891 1326 650 
Q 1584 409 2034 409 
Q 2484 409 2743 651 
Q 3003 894 3003 1313 
Q 3003 1734 2745 1975 
Q 2488 2216 2034 2216 
z
M 1403 2484 
Q 997 2584 770 2862 
Q 544 3141 544 3541 
Q 544 4100 942 4425 
Q 1341 4750 2034 4750 
Q 2731 4750 3128 4425 
Q 3525 4100 3525 3541 
Q 3525 3141 3298 2862 
Q 3072 2584 2669 2484 
Q 3125 2378 3379 2068 
Q 3634 1759 3634 1313 
Q 3634 634 3220 271 
Q 2806 -91 2034 -91 
Q 1263 -91 848 271 
Q 434 634 434 1313 
Q 434 1759 690 2068 
Q 947 2378 1403 2484 
z
M 1172 3481 
Q 1172 3119 1398 2916 
Q 1625 2713 2034 2713 
Q 2441 2713 2670 2916 
Q 2900 3119 2900 3481 
Q 2900 3844 2670 4047 
Q 2441 4250 2034 4250 
Q 1625 4250 1398 4047 
Q 1172 3844 1172 3481 
z
" id="DejaVuSans-38" transform="scale(0.015625)"/>
       </defs>
       <use xlink:href="#DejaVuSans-38"/>
       <use x="63.623047" xlink:href="#DejaVuSans-30"/>
      </g>
     </g>
    </g>
    <g id="text_15">
     <!-- $V_{XGy}$ in % -->
     <g transform="translate(24.469 159.688)rotate(-90)scale(0.12 -0.12)">
      <defs>
       <path d="M 878 4666 
L 1516 4666 
L 2316 2981 
L 3763 4666 
L 4500 4666 
L 2578 2438 
L 3738 0 
L 3103 0 
L 2163 1966 
L 459 0 
L -275 0 
L 1906 2509 
L 878 4666 
z
" id="DejaVuSans-Oblique-58" transform="scale(0.015625)"/>
       <path d="M 4653 2053 
Q 4381 2053 4226 1822 
Q 4072 1591 4072 1178 
Q 4072 772 4226 539 
Q 4381 306 4653 306 
Q 4919 306 5073 539 
Q 5228 772 5228 1178 
Q 5228 1588 5073 1820 
Q 4919 2053 4653 2053 
z
M 4653 2450 
Q 5147 2450 5437 2106 
Q 5728 1763 5728 1178 
Q 5728 594 5436 251 
Q 5144 -91 4653 -91 
Q 4153 -91 3862 251 
Q 3572 594 3572 1178 
Q 3572 1766 3864 2108 
Q 4156 2450 4653 2450 
z
M 1428 4353 
Q 1159 4353 1004 4120 
Q 850 3888 850 3481 
Q 850 3069 1003 2837 
Q 1156 2606 1428 2606 
Q 1700 2606 1854 2837 
Q 2009 3069 2009 3481 
Q 2009 3884 1853 4118 
Q 1697 4353 1428 4353 
z
M 4250 4750 
L 4750 4750 
L 1831 -91 
L 1331 -91 
L 4250 4750 
z
M 1428 4750 
Q 1922 4750 2215 4408 
Q 2509 4066 2509 3481 
Q 2509 2891 2217 2550 
Q 1925 2209 1428 2209 
Q 931 2209 642 2551 
Q 353 2894 353 3481 
Q 353 4063 643 4406 
Q 934 4750 1428 4750 
z
" id="DejaVuSans-25" transform="scale(0.015625)"/>
      </defs>
      <use transform="translate(0 0.015625)" xlink:href="#DejaVuSans-Oblique-56"/>
      <use transform="translate(68.408203 -16.390625)scale(0.7)" xlink:href="#DejaVuSans-Oblique-58"/>
      <use transform="translate(116.362305 -16.390625)scale(0.7)" xlink:href="#DejaVuSans-Oblique-47"/>
      <use transform="translate(170.605469 -16.390625)scale(0.7)" xlink:href="#DejaVuSans-Oblique-79"/>
      <use transform="translate(214.765625 0.015625)" xlink:href="#DejaVuSans-20"/>
      <use transform="translate(246.552734 0.015625)" xlink:href="#DejaVuSans-69"/>
      <use transform="translate(274.335938 0.015625)" xlink:href="#DejaVuSans-6e"/>
      <use transform="translate(337.714844 0.015625)" xlink:href="#DejaVuSans-20"/>
      <use transform="translate(369.501953 0.015625)" xlink:href="#DejaVuSans-25"/>
     </g>
    </g>
   </g>
   <g id="line2d_24">
    <path clip-path="url(#p9bb8f76b4e)" d="M 64.26912 103.160702 
L 163.11008 103.160702 
" style="fill:none;stroke:#ff0000;stroke-dasharray:5.55,2.4;stroke-dashoffset:0;stroke-width:1.5;"/>
   </g>
   <g id="line2d_25">
    <path clip-path="url(#p9bb8f76b4e)" d="M 187.82032 103.160702 
L 286.66128 103.160702 
" style="fill:none;stroke:#ff0000;stroke-dasharray:5.55,2.4;stroke-dashoffset:0;stroke-width:1.5;"/>
   </g>
   <g id="line2d_26">
    <path clip-path="url(#p9bb8f76b4e)" d="M 311.37152 103.160702 
L 410.21248 103.160702 
" style="fill:none;stroke:#ff0000;stroke-dasharray:5.55,2.4;stroke-dashoffset:0;stroke-width:1.5;"/>
   </g>
   <g id="line2d_27">
    <path clip-path="url(#p9bb8f76b4e)" d="M 434.92272 103.160702 
L 533.76368 103.160702 
" style="fill:none;stroke:#ff0000;stroke-dasharray:5.55,2.4;stroke-dashoffset:0;stroke-width:1.5;"/>
   </g>
   <g id="patch_3">
    <path d="M 51.914 252.776 
L 51.914 10.8 
" style="fill:none;stroke:#000000;stroke-linecap:square;stroke-linejoin:miter;stroke-width:0.8;"/>
   </g>
   <g id="patch_4">
    <path d="M 669.67 252.776 
L 669.67 10.8 
" style="fill:none;stroke:#000000;stroke-linecap:square;stroke-linejoin:miter;stroke-width:0.8;"/>
   </g>
   <g id="patch_5">
    <path d="M 51.914 252.776 
L 669.67 252.776 
" style="fill:none;stroke:#000000;stroke-linecap:square;stroke-linejoin:miter;stroke-width:0.8;"/>
   </g>
   <g id="patch_6">
    <path d="M 51.914 10.8 
L 669.67 10.8 
" style="fill:none;stroke:#000000;stroke-linecap:square;stroke-linejoin:miter;stroke-width:0.8;"/>
   </g>
   <g id="legend_1">
    <g id="patch_7">
     <path d="M 58.914 48.15625 
L 118.734313 48.15625 
Q 120.734313 48.15625 120.734313 46.15625 
L 120.734313 17.8 
Q 120.734313 15.8 118.734313 15.8 
L 58.914 15.8 
Q 56.914 15.8 56.914 17.8 
L 56.914 46.15625 
Q 56.914 48.15625 58.914 48.15625 
z
" style="fill:#ffffff;opacity:0.8;stroke:#cccccc;stroke-linejoin:miter;"/>
    </g>
    <g id="PathCollection_9">
     <g>
      <use style="fill:#1f77b4;stroke:#1f77b4;" x="70.914" xlink:href="#m53ddcbc8d6" y="24.773438"/>
     </g>
    </g>
    <g id="text_16">
     <!-- MBRT -->
     <g transform="translate(88.914 27.398438)scale(0.1 -0.1)">
      <defs>
       <path d="M 628 4666 
L 1569 4666 
L 2759 1491 
L 3956 4666 
L 4897 4666 
L 4897 0 
L 4281 0 
L 4281 4097 
L 3078 897 
L 2444 897 
L 1241 4097 
L 1241 0 
L 628 0 
L 628 4666 
z
" id="DejaVuSans-4d" transform="scale(0.015625)"/>
       <path d="M 1259 2228 
L 1259 519 
L 2272 519 
Q 2781 519 3026 730 
Q 3272 941 3272 1375 
Q 3272 1813 3026 2020 
Q 2781 2228 2272 2228 
L 1259 2228 
z
M 1259 4147 
L 1259 2741 
L 2194 2741 
Q 2656 2741 2882 2914 
Q 3109 3088 3109 3444 
Q 3109 3797 2882 3972 
Q 2656 4147 2194 4147 
L 1259 4147 
z
M 628 4666 
L 2241 4666 
Q 2963 4666 3353 4366 
Q 3744 4066 3744 3513 
Q 3744 3084 3544 2831 
Q 3344 2578 2956 2516 
Q 3422 2416 3680 2098 
Q 3938 1781 3938 1306 
Q 3938 681 3513 340 
Q 3088 0 2303 0 
L 628 0 
L 628 4666 
z
" id="DejaVuSans-42" transform="scale(0.015625)"/>
       <path d="M 2841 2188 
Q 3044 2119 3236 1894 
Q 3428 1669 3622 1275 
L 4263 0 
L 3584 0 
L 2988 1197 
Q 2756 1666 2539 1819 
Q 2322 1972 1947 1972 
L 1259 1972 
L 1259 0 
L 628 0 
L 628 4666 
L 2053 4666 
Q 2853 4666 3247 4331 
Q 3641 3997 3641 3322 
Q 3641 2881 3436 2590 
Q 3231 2300 2841 2188 
z
M 1259 4147 
L 1259 2491 
L 2053 2491 
Q 2509 2491 2742 2702 
Q 2975 2913 2975 3322 
Q 2975 3731 2742 3939 
Q 2509 4147 2053 4147 
L 1259 4147 
z
" id="DejaVuSans-52" transform="scale(0.015625)"/>
      </defs>
      <use xlink:href="#DejaVuSans-4d"/>
      <use x="86.279297" xlink:href="#DejaVuSans-42"/>
      <use x="154.882812" xlink:href="#DejaVuSans-52"/>
      <use x="217.115234" xlink:href="#DejaVuSans-54"/>
     </g>
    </g>
    <g id="PathCollection_10">
     <g>
      <use style="fill:#ff7f0e;stroke:#ff7f0e;stroke-width:1.5;" x="70.914" xlink:href="#m995fc828e6" y="39.451562"/>
     </g>
    </g>
    <g id="text_17">
     <!-- VMAT -->
     <g transform="translate(88.914 42.076562)scale(0.1 -0.1)">
      <defs>
       <path d="M 1831 0 
L 50 4666 
L 709 4666 
L 2188 738 
L 3669 4666 
L 4325 4666 
L 2547 0 
L 1831 0 
z
" id="DejaVuSans-56" transform="scale(0.015625)"/>
      </defs>
      <use xlink:href="#DejaVuSans-56"/>
      <use x="68.408203" xlink:href="#DejaVuSans-4d"/>
      <use x="154.6875" xlink:href="#DejaVuSans-41"/>
      <use x="215.345703" xlink:href="#DejaVuSans-54"/>
     </g>
    </g>
   </g>
  </g>
  <g id="axes_2">
   <g id="PathCollection_11">
    <g clip-path="url(#p9bb8f76b4e)">
     <use style="fill:#1f77b4;stroke:#1f77b4;" x="584.72855" xlink:href="#m53ddcbc8d6" y="240.152868"/>
     <use style="fill:#1f77b4;stroke:#1f77b4;" x="586.27294" xlink:href="#m53ddcbc8d6" y="161.364453"/>
     <use style="fill:#1f77b4;stroke:#1f77b4;" x="587.81733" xlink:href="#m53ddcbc8d6" y="69.529886"/>
     <use style="fill:#1f77b4;stroke:#1f77b4;" x="589.36172" xlink:href="#m53ddcbc8d6" y="236.725388"/>
     <use style="fill:#1f77b4;stroke:#1f77b4;" x="590.90611" xlink:href="#m53ddcbc8d6" y="221.064651"/>
     <use style="fill:#1f77b4;stroke:#1f77b4;" x="592.4505" xlink:href="#m53ddcbc8d6" y="241.777091"/>
    </g>
   </g>
   <g id="PathCollection_12">
    <g clip-path="url(#p9bb8f76b4e)">
     <use style="fill:#ff7f0e;stroke:#ff7f0e;stroke-width:1.5;" x="621.79391" xlink:href="#m995fc828e6" y="239.313254"/>
     <use style="fill:#ff7f0e;stroke:#ff7f0e;stroke-width:1.5;" x="623.3383" xlink:href="#m995fc828e6" y="83.928502"/>
     <use style="fill:#ff7f0e;stroke:#ff7f0e;stroke-width:1.5;" x="624.88269" xlink:href="#m995fc828e6" y="43.791174"/>
     <use style="fill:#ff7f0e;stroke:#ff7f0e;stroke-width:1.5;" x="626.42708" xlink:href="#m995fc828e6" y="235.688944"/>
     <use style="fill:#ff7f0e;stroke:#ff7f0e;stroke-width:1.5;" x="627.97147" xlink:href="#m995fc828e6" y="170.033619"/>
     <use style="fill:#ff7f0e;stroke:#ff7f0e;stroke-width:1.5;" x="629.51586" xlink:href="#m995fc828e6" y="241.730517"/>
    </g>
   </g>
   <g id="matplotlib.axis_3">
    <g id="ytick_10">
     <g id="line2d_28">
      <defs>
       <path d="M 0 0 
L 3.5 0 
" id="m5eeb51436b" style="stroke:#000000;stroke-width:0.8;"/>
      </defs>
      <g>
       <use style="stroke:#000000;stroke-width:0.8;" x="669.67" xlink:href="#m5eeb51436b" y="242.235561"/>
      </g>
     </g>
     <g id="text_18">
      <!-- 0 -->
      <g transform="translate(676.67 246.03478)scale(0.1 -0.1)">
       <use xlink:href="#DejaVuSans-30"/>
      </g>
     </g>
    </g>
    <g id="ytick_11">
     <g id="line2d_29">
      <g>
       <use style="stroke:#000000;stroke-width:0.8;" x="669.67" xlink:href="#m5eeb51436b" y="214.680979"/>
      </g>
     </g>
     <g id="text_19">
      <!-- 5 -->
      <g transform="translate(676.67 218.480198)scale(0.1 -0.1)">
       <use xlink:href="#DejaVuSans-35"/>
      </g>
     </g>
    </g>
    <g id="ytick_12">
     <g id="line2d_30">
      <g>
       <use style="stroke:#000000;stroke-width:0.8;" x="669.67" xlink:href="#m5eeb51436b" y="187.126398"/>
      </g>
     </g>
     <g id="text_20">
      <!-- 10 -->
      <g transform="translate(676.67 190.925617)scale(0.1 -0.1)">
       <use xlink:href="#DejaVuSans-31"/>
       <use x="63.623047" xlink:href="#DejaVuSans-30"/>
      </g>
     </g>
    </g>
    <g id="ytick_13">
     <g id="line2d_31">
      <g>
       <use style="stroke:#000000;stroke-width:0.8;" x="669.67" xlink:href="#m5eeb51436b" y="159.571817"/>
      </g>
     </g>
     <g id="text_21">
      <!-- 15 -->
      <g transform="translate(676.67 163.371035)scale(0.1 -0.1)">
       <use xlink:href="#DejaVuSans-31"/>
       <use x="63.623047" xlink:href="#DejaVuSans-35"/>
      </g>
     </g>
    </g>
    <g id="ytick_14">
     <g id="line2d_32">
      <g>
       <use style="stroke:#000000;stroke-width:0.8;" x="669.67" xlink:href="#m5eeb51436b" y="132.017235"/>
      </g>
     </g>
     <g id="text_22">
      <!-- 20 -->
      <g transform="translate(676.67 135.816454)scale(0.1 -0.1)">
       <use xlink:href="#DejaVuSans-32"/>
       <use x="63.623047" xlink:href="#DejaVuSans-30"/>
      </g>
     </g>
    </g>
    <g id="ytick_15">
     <g id="line2d_33">
      <g>
       <use style="stroke:#000000;stroke-width:0.8;" x="669.67" xlink:href="#m5eeb51436b" y="104.462654"/>
      </g>
     </g>
     <g id="text_23">
      <!-- 25 -->
      <g transform="translate(676.67 108.261872)scale(0.1 -0.1)">
       <use xlink:href="#DejaVuSans-32"/>
       <use x="63.623047" xlink:href="#DejaVuSans-35"/>
      </g>
     </g>
    </g>
    <g id="ytick_16">
     <g id="line2d_34">
      <g>
       <use style="stroke:#000000;stroke-width:0.8;" x="669.67" xlink:href="#m5eeb51436b" y="76.908072"/>
      </g>
     </g>
     <g id="text_24">
      <!-- 30 -->
      <g transform="translate(676.67 80.707291)scale(0.1 -0.1)">
       <use xlink:href="#DejaVuSans-33"/>
       <use x="63.623047" xlink:href="#DejaVuSans-30"/>
      </g>
     </g>
    </g>
    <g id="ytick_17">
     <g id="line2d_35">
      <g>
       <use style="stroke:#000000;stroke-width:0.8;" x="669.67" xlink:href="#m5eeb51436b" y="49.353491"/>
      </g>
     </g>
     <g id="text_25">
      <!-- 35 -->
      <g transform="translate(676.67 53.152709)scale(0.1 -0.1)">
       <use xlink:href="#DejaVuSans-33"/>
       <use x="63.623047" xlink:href="#DejaVuSans-35"/>
      </g>
     </g>
    </g>
    <g id="ytick_18">
     <g id="line2d_36">
      <g>
       <use style="stroke:#000000;stroke-width:0.8;" x="669.67" xlink:href="#m5eeb51436b" y="21.798909"/>
      </g>
     </g>
     <g id="text_26">
      <!-- 40 -->
      <g transform="translate(676.67 25.598128)scale(0.1 -0.1)">
       <use xlink:href="#DejaVuSans-34"/>
       <use x="63.623047" xlink:href="#DejaVuSans-30"/>
      </g>
     </g>
    </g>
    <g id="text_27">
     <!-- $D_{mean}$ in Gy -->
     <g transform="translate(702.515 165.988)rotate(-90)scale(0.12 -0.12)">
      <defs>
       <path d="M 2059 -325 
Q 1816 -950 1584 -1140 
Q 1353 -1331 966 -1331 
L 506 -1331 
L 506 -850 
L 844 -850 
Q 1081 -850 1212 -737 
Q 1344 -625 1503 -206 
L 1606 56 
L 191 3500 
L 800 3500 
L 1894 763 
L 2988 3500 
L 3597 3500 
L 2059 -325 
z
" id="DejaVuSans-79" transform="scale(0.015625)"/>
      </defs>
      <use transform="translate(0 0.015625)" xlink:href="#DejaVuSans-Oblique-44"/>
      <use transform="translate(77.001953 -16.390625)scale(0.7)" xlink:href="#DejaVuSans-Oblique-6d"/>
      <use transform="translate(145.19043 -16.390625)scale(0.7)" xlink:href="#DejaVuSans-Oblique-65"/>
      <use transform="translate(188.256836 -16.390625)scale(0.7)" xlink:href="#DejaVuSans-Oblique-61"/>
      <use transform="translate(231.152344 -16.390625)scale(0.7)" xlink:href="#DejaVuSans-Oblique-6e"/>
      <use transform="translate(278.251953 0.015625)" xlink:href="#DejaVuSans-20"/>
      <use transform="translate(310.039062 0.015625)" xlink:href="#DejaVuSans-69"/>
      <use transform="translate(337.822266 0.015625)" xlink:href="#DejaVuSans-6e"/>
      <use transform="translate(401.201172 0.015625)" xlink:href="#DejaVuSans-20"/>
      <use transform="translate(432.988281 0.015625)" xlink:href="#DejaVuSans-47"/>
      <use transform="translate(510.478516 0.015625)" xlink:href="#DejaVuSans-79"/>
     </g>
    </g>
   </g>
   <g id="line2d_37">
    <path clip-path="url(#p9bb8f76b4e)" d="M 558.47392 21.798909 
L 657.31488 21.798909 
" style="fill:none;stroke:#ff0000;stroke-dasharray:5.55,2.4;stroke-dashoffset:0;stroke-width:1.5;"/>
   </g>
   <g id="line2d_38">
    <path clip-path="url(#p9bb8f76b4e)" d="M 546.1188 252.776 
L 546.1188 10.8 
" style="fill:none;stroke:#000000;stroke-dasharray:5.55,2.4;stroke-dashoffset:0;stroke-width:1.5;"/>
   </g>
   <g id="patch_8">
    <path d="M 51.914 252.776 
L 51.914 10.8 
" style="fill:none;stroke:#000000;stroke-linecap:square;stroke-linejoin:miter;stroke-width:0.8;"/>
   </g>
   <g id="patch_9">
    <path d="M 669.67 252.776 
L 669.67 10.8 
" style="fill:none;stroke:#000000;stroke-linecap:square;stroke-linejoin:miter;stroke-width:0.8;"/>
   </g>
   <g id="patch_10">
    <path d="M 51.914 252.776 
L 669.67 252.776 
" style="fill:none;stroke:#000000;stroke-linecap:square;stroke-linejoin:miter;stroke-width:0.8;"/>
   </g>
   <g id="patch_11">
    <path d="M 51.914 10.8 
L 669.67 10.8 
" style="fill:none;stroke:#000000;stroke-linecap:square;stroke-linejoin:miter;stroke-width:0.8;"/>
   </g>
  </g>
 </g>
 <defs>
  <clipPath id="p9bb8f76b4e">
   <rect height="241.976" width="617.756" x="51.914" y="10.8"/>
  </clipPath>
 </defs>
</svg>
